<svg width="166" height="131" viewBox="0 0 166 131" fill="none" xmlns="http://www.w3.org/2000/svg">
<path d="M114.987 19.8192C114.862 24.36 114.736 28.3552 114.333 32.3296C113.685 38.6944 112.733 44.9984 110.701 51.1088C108.968 56.3248 105.846 60.5488 101.979 64.3488C96.952 69.2864 91.3456 73.4224 85.24 76.9216C83.8256 77.7328 82.6112 77.8384 81.112 76.9984C72.8928 72.3936 65.6512 66.624 59.7024 59.3008C57.496 56.5808 56.216 53.3696 55.1808 50.0608C53.712 45.3648 52.8192 40.5552 52.2528 35.6704C51.4997 28.9779 51.17 22.2445 51.2656 15.5104C51.2896 13.2944 51.7744 12.6784 53.9856 12.3776C60.7184 11.4624 67.0816 9.3376 73.28 6.64C76.08 5.416 78.84 4.1088 81.56 2.7376C82.7152 2.1536 83.7376 2.2432 84.8672 2.8224C89.2576 5.0768 93.7232 7.1696 98.3712 8.8496C102.541 10.3552 106.789 11.5616 111.171 12.2512C111.749 12.3424 112.336 12.3776 112.909 12.4912C114.25 12.76 114.968 13.6256 114.989 15.0112C115 16.7952 114.987 18.5776 114.987 19.8192Z" fill="#1A6969"/>
<path d="M112.621 21.424C112.387 30.0192 111.661 38.4384 109.573 46.6944C108.816 49.6928 107.813 52.592 106.307 55.3088C104.768 58.0928 102.627 60.3936 100.398 62.6128C95.4616 67.52 89.8563 71.7053 83.7489 75.0448C83.2689 75.3104 82.9201 75.3088 82.4497 75.0448C74.5441 70.704 67.5937 65.1824 61.8513 58.2112C59.3553 55.1824 57.9921 51.5616 56.9601 47.8112C55.5057 42.5312 54.6865 37.152 54.1889 31.7088C53.6945 26.3152 53.5489 20.9136 53.5809 15.5024C53.5809 14.9552 53.6897 14.7312 54.2897 14.6528C64.2225 13.3584 73.2753 9.4912 82.1297 5.0528C82.8369 4.696 83.3777 4.6736 84.1009 5.04C90.6337 8.3472 97.3073 11.3104 104.421 13.1872C106.916 13.8485 109.452 14.3429 112.013 14.6672C112.587 14.7392 112.653 14.944 112.653 15.4672C112.6 17.488 112.621 19.5136 112.621 21.424Z" fill="#FEFEFE"/>
<path d="M107.917 23.7664C107.418 31.784 106.693 39.744 104.477 47.5152C103.115 52.2912 100.344 56.0864 96.864 59.4864C92.8686 63.3704 88.4407 66.7832 83.6672 69.6576C83.2816 69.8912 83.016 69.9344 82.6 69.6816C76.224 65.8048 70.4912 61.1776 65.6944 55.4256C63.76 53.1056 62.6448 50.3888 61.7728 47.5536C60.264 42.648 59.4912 37.6032 58.9984 32.5136C58.5824 28.2144 58.3952 23.904 58.3264 19.5872C58.3264 19.1424 58.3568 18.8528 58.8896 18.7456C67.0864 17.0976 74.768 14.0096 82.224 10.3104C82.8544 9.99841 83.352 9.98081 83.984 10.2992C89.4638 13.0787 95.1716 15.3837 101.045 17.1888C103.082 17.806 105.148 18.3203 107.237 18.7296C107.782 18.8368 107.957 19.0496 107.934 19.6176C107.88 20.9952 107.917 22.3808 107.917 23.7664Z" fill="#1A6969"/>
<path d="M99.4 39.4336C97.7296 41.0336 96.0816 42.6256 94.44 44.2144C91.1056 47.4368 87.7722 50.6597 84.44 53.8832C83.0256 55.2496 81.8928 55.1424 80.76 53.5056C79.6933 51.9483 78.6442 50.3765 77.6128 48.7904C77.5266 48.6305 77.3952 48.4997 77.2349 48.4143C77.0746 48.3289 76.8927 48.2927 76.712 48.3104C74.8992 48.3328 73.088 48.3312 71.272 48.3104C68.6336 48.2912 66.872 46.528 66.8688 43.8832C66.8592 38.0165 66.8592 32.1536 66.8688 26.2944C66.8688 23.8944 68.664 22.0912 71.0464 22.0816C73.232 22.0704 75.4176 22.0816 77.6064 22.0816C77.8206 22.0633 78.0363 22.0773 78.2464 22.1232C78.736 22.2832 79.1168 22.6032 79.12 23.1408C79.12 23.6208 78.7664 23.88 78.32 24.0224C78.0131 24.1119 77.6939 24.1519 77.3744 24.1408C75.3504 24.1408 73.3248 24.1312 71.2944 24.1408C69.8192 24.1488 68.984 24.9264 68.9792 26.3888C68.9653 32.2256 68.9701 38.0619 68.9936 43.8976C68.9936 45.448 69.848 46.2304 71.4032 46.2352C73.536 46.2352 75.6672 46.2496 77.8032 46.2256C77.9955 46.2092 78.1885 46.2488 78.3589 46.3396C78.5293 46.4305 78.6697 46.5687 78.7632 46.7376C79.9424 48.5424 81.1632 50.3232 82.3424 52.1248C82.592 52.5056 82.7296 52.648 83.1424 52.2464C87.7461 47.7664 92.3637 43.3029 96.9952 38.856C97.1972 38.6839 97.4111 38.5262 97.6352 38.384L97.528 38.16L94.968 37.9296C94.4368 37.8832 93.904 37.856 93.376 37.7904C92.5664 37.6912 92.176 37.248 92.2432 36.544C92.3024 35.904 92.7936 35.512 93.5552 35.5632C94.9632 35.6592 96.3696 35.7904 97.776 35.9104C98.576 35.9776 99.3664 36.0704 100.163 36.1168C100.869 36.1552 101.23 36.544 101.352 37.1888C101.742 39.2544 102.131 41.32 102.498 43.3888C102.658 44.2976 102.299 44.888 101.6 44.9744C100.901 45.0608 100.437 44.6016 100.27 43.6944C100.026 42.36 99.7728 41.0272 99.52 39.6944C99.4884 39.6038 99.4483 39.5165 99.4 39.4336Z" fill="#FEFEFE"/>
<path d="M88.28 25.4176C89.2256 25.1712 89.7376 25.5152 89.7392 26.4592C89.7504 31.248 89.7392 36.0352 89.7472 40.824C89.7472 41.5024 89.488 41.9744 88.776 42.0496C88.1872 42.112 87.656 41.5696 87.656 40.8496C87.656 36.8336 87.6704 32.8176 87.68 28.8016C87.7705 28.6004 87.8173 28.3822 87.8173 28.1616C87.8173 27.941 87.7705 27.7228 87.68 27.5216C87.6624 27.0272 87.5392 26.5248 87.7696 26.0448C88.0608 26.216 88.0096 25.8928 88.1184 25.8016C88.1616 25.672 88.2704 25.5664 88.28 25.4176Z" fill="#15CDD3"/>
<path d="M84.7839 35.0944C84.7839 36.984 84.7839 38.8736 84.7839 40.7648C84.7839 41.5792 84.4239 42.0448 83.8095 42.0576C83.1951 42.0704 82.7007 41.5392 82.6991 40.76C82.6895 37.0064 82.6895 33.2528 82.6991 29.4992C82.6991 28.6896 83.1487 28.1632 83.7695 28.1728C84.4383 28.184 84.7823 28.6256 84.7855 29.504C84.7871 31.368 84.7839 33.2304 84.7839 35.0944Z" fill="#15CDD3"/>
<path d="M79.8289 37.2032C79.8289 38.4272 79.8385 39.6512 79.8289 40.8752C79.8289 41.6096 79.4209 42.0944 78.8289 42.0496C78.1425 41.9968 77.7569 41.5696 77.7505 40.8912C77.7313 38.4176 77.7313 35.9429 77.7505 33.4672C77.7505 32.7824 78.2753 32.2832 78.8433 32.3376C79.5489 32.4064 79.8465 32.8288 79.8369 33.5312C79.8161 34.7552 79.8305 35.9792 79.8289 37.2032Z" fill="#15CDD3"/>
<path d="M74.8719 39.2C74.8719 39.784 74.8719 40.368 74.8719 40.952C74.8847 41.592 74.5519 41.984 73.9503 42.0416C73.3487 42.0992 72.8607 41.7216 72.8303 41.1376C72.7666 39.814 72.7692 38.4881 72.8383 37.1648C72.8687 36.5616 73.2991 36.24 73.9487 36.2976C74.5983 36.3552 74.8623 36.7568 74.8671 37.3696C74.8719 37.9824 74.8719 38.5904 74.8719 39.2Z" fill="#15CDD3"/>
<path d="M87.6816 27.5264C88.1083 27.9531 88.1083 28.3797 87.6816 28.8064V27.5264Z" fill="#26D1D7"/>
<path d="M88.2799 25.7648C88.2783 25.8556 88.258 25.945 88.2203 26.0276C88.1826 26.1102 88.1282 26.1841 88.0607 26.2448C87.9951 26.3088 87.9256 26.3686 87.8527 26.424L87.7759 26.056L87.9439 25.736C88.0479 25.7776 88.1711 25.664 88.2799 25.7648Z" fill="#40D6DA"/>
<path d="M88.2801 25.7648C88.1633 25.7968 88.0369 25.9248 87.9441 25.7312C87.9702 25.655 88.0142 25.5862 88.0724 25.5305C88.1306 25.4749 88.2012 25.4339 88.2785 25.4112C88.4401 25.5328 88.3089 25.648 88.2801 25.7648Z" fill="#55DBDF"/>
<path d="M11.052 87.708C14.028 87.708 15.516 89.292 15.516 92.46V106.248C15.516 109.416 14.028 111 11.052 111H1.8V87.708H11.052ZM10.476 106.824V91.848C10.476 91.656 10.404 91.488 10.26 91.344C10.14 91.2 9.984 91.128 9.792 91.128H6.84V107.544H9.792C9.984 107.544 10.14 107.472 10.26 107.328C10.404 107.184 10.476 107.016 10.476 106.824ZM28.5247 87.348C31.5007 87.348 32.9887 88.932 32.9887 92.1V111H27.9487V103.188H24.3127V111H19.2727V92.1C19.2727 88.932 20.7607 87.348 23.7367 87.348H28.5247ZM24.3127 99.3H27.9487V91.488C27.9487 91.296 27.8767 91.128 27.7327 90.984C27.6127 90.84 27.4567 90.768 27.2647 90.768H24.9967C24.8047 90.768 24.6367 90.84 24.4927 90.984C24.3727 91.128 24.3127 91.296 24.3127 91.488V99.3ZM35.4133 91.992V87.708H48.0133V91.992H44.2333V111H39.1933V91.992H35.4133ZM59.5676 87.348C62.5436 87.348 64.0316 88.932 64.0316 92.1V111H58.9916V103.188H55.3556V111H50.3156V92.1C50.3156 88.932 51.8036 87.348 54.7796 87.348H59.5676ZM55.3556 99.3H58.9916V91.488C58.9916 91.296 58.9196 91.128 58.7756 90.984C58.6556 90.84 58.4996 90.768 58.3076 90.768H56.0396C55.8476 90.768 55.6796 90.84 55.5356 90.984C55.4156 91.128 55.3556 91.296 55.3556 91.488V99.3ZM87.9896 93.828H83.2016V91.992C83.2016 91.8 83.1296 91.632 82.9856 91.488C82.8656 91.344 82.7096 91.272 82.5176 91.272H80.5376C80.3456 91.272 80.1776 91.344 80.0336 91.488C79.9136 91.632 79.8536 91.8 79.8536 91.992V96.132C79.8536 96.324 79.9136 96.492 80.0336 96.636C80.1776 96.78 80.3456 96.852 80.5376 96.852H83.7776C86.7536 96.9 88.2416 98.484 88.2416 101.604V106.608C88.2416 109.776 86.7536 111.36 83.7776 111.36H79.5296C76.5536 111.36 75.0656 109.776 75.0656 106.608V104.196H79.8536V106.788C79.8536 106.98 79.9136 107.148 80.0336 107.292C80.1776 107.436 80.3456 107.508 80.5376 107.508H82.7696C82.9616 107.508 83.1176 107.436 83.2376 107.292C83.3816 107.148 83.4536 106.98 83.4536 106.788V102.216C83.4536 102.024 83.3816 101.856 83.2376 101.712C83.1176 101.568 82.9616 101.496 82.7696 101.496H79.5296C76.5536 101.496 75.0656 99.912 75.0656 96.744V92.1C75.0656 88.932 76.5536 87.348 79.5296 87.348H83.5256C86.5016 87.348 87.9896 88.932 87.9896 92.1V93.828ZM96.5939 106.824H102.174V111H91.5539V87.708H102.174V91.812H96.5939V97.284H101.814V101.244H96.5939V106.824ZM118.445 111H113.405V91.668C113.405 91.476 113.333 91.308 113.189 91.164C113.069 91.02 112.913 90.948 112.721 90.948H110.777C110.585 90.948 110.417 91.02 110.273 91.164C110.153 91.308 110.093 91.476 110.093 91.668V111H105.053V92.1C105.053 88.932 106.541 87.348 109.517 87.348H113.981C116.957 87.348 118.445 88.932 118.445 92.1V111ZM120.491 91.992V87.708H133.091V91.992H129.311V111H124.271V91.992H120.491ZM140.434 101.46V111H135.394V87.708H144.358C147.334 87.708 148.822 89.292 148.822 92.46V95.16C148.822 97.08 148.138 98.304 146.77 98.832C147.97 99.264 148.57 100.248 148.57 101.784V111H143.53V102.18C143.53 101.7 143.302 101.46 142.846 101.46H140.434ZM140.434 91.128V97.932H143.098C143.29 97.932 143.446 97.86 143.566 97.716C143.71 97.572 143.782 97.404 143.782 97.212V91.848C143.782 91.656 143.71 91.488 143.566 91.344C143.446 91.2 143.29 91.128 143.098 91.128H140.434ZM165.558 87.708L160.554 102.504V111H155.514V102.504L150.51 87.708H155.262L158.034 97.428L160.806 87.708H165.558Z" fill="#227372"/>
<path d="M33.384 115.928C33.4373 115.843 33.512 115.8 33.608 115.8H35.08C35.1333 115.8 35.176 115.821 35.208 115.864C35.2507 115.896 35.272 115.939 35.272 115.992V126.808C35.272 126.861 35.2507 126.909 35.208 126.952C35.176 126.984 35.1333 127 35.08 127H33.608C33.5547 127 33.5067 126.984 33.464 126.952C33.432 126.909 33.416 126.861 33.416 126.808V119.176C33.416 119.144 33.4 119.123 33.368 119.112C33.3467 119.101 33.3307 119.112 33.32 119.144L31.32 122.216C31.2667 122.301 31.192 122.344 31.096 122.344H30.36C30.264 122.344 30.1893 122.301 30.136 122.216L28.12 119.16C28.1093 119.128 28.088 119.117 28.056 119.128C28.0347 119.139 28.024 119.16 28.024 119.192V126.808C28.024 126.861 28.0027 126.909 27.96 126.952C27.928 126.984 27.8853 127 27.832 127H26.36C26.3067 127 26.2587 126.984 26.216 126.952C26.184 126.909 26.168 126.861 26.168 126.808V115.992C26.168 115.939 26.184 115.896 26.216 115.864C26.2587 115.821 26.3067 115.8 26.36 115.8H27.832C27.928 115.8 28.0027 115.843 28.056 115.928L30.664 119.88C30.6853 119.901 30.7067 119.912 30.728 119.912C30.7493 119.912 30.7653 119.901 30.776 119.88L33.384 115.928ZM40.9015 127.128C40.0588 127.128 39.3335 126.915 38.7255 126.488C38.1282 126.061 37.7068 125.469 37.4615 124.712C37.2802 124.136 37.1895 123.528 37.1895 122.888C37.1895 122.205 37.2748 121.597 37.4455 121.064C37.6908 120.317 38.1175 119.736 38.7255 119.32C39.3335 118.904 40.0642 118.696 40.9175 118.696C41.7282 118.696 42.4268 118.904 43.0135 119.32C43.6108 119.736 44.0322 120.312 44.2775 121.048C44.4695 121.56 44.5655 122.168 44.5655 122.872C44.5655 123.544 44.4748 124.152 44.2935 124.696C44.0482 125.453 43.6268 126.051 43.0295 126.488C42.4322 126.915 41.7228 127.128 40.9015 127.128ZM40.9015 125.528C41.2962 125.528 41.6322 125.416 41.9095 125.192C42.1975 124.968 42.4055 124.653 42.5335 124.248C42.6402 123.896 42.6935 123.448 42.6935 122.904C42.6935 122.328 42.6402 121.88 42.5335 121.56C42.4162 121.155 42.2135 120.845 41.9255 120.632C41.6375 120.408 41.2855 120.296 40.8695 120.296C40.4748 120.296 40.1335 120.408 39.8455 120.632C39.5575 120.845 39.3495 121.155 39.2215 121.56C39.1148 121.933 39.0615 122.381 39.0615 122.904C39.0615 123.427 39.1148 123.875 39.2215 124.248C39.3388 124.653 39.5415 124.968 39.8295 125.192C40.1282 125.416 40.4855 125.528 40.9015 125.528ZM50.2401 118.696C51.1041 118.696 51.7921 118.952 52.3041 119.464C52.8268 119.976 53.0881 120.675 53.0881 121.56V126.808C53.0881 126.861 53.0668 126.909 53.0241 126.952C52.9921 126.984 52.9495 127 52.8961 127H51.4241C51.3708 127 51.3228 126.984 51.2801 126.952C51.2481 126.909 51.2321 126.861 51.2321 126.808V121.944C51.2321 121.453 51.0935 121.059 50.8161 120.76C50.5388 120.451 50.1708 120.296 49.7121 120.296C49.2535 120.296 48.8801 120.445 48.5921 120.744C48.3148 121.043 48.1761 121.437 48.1761 121.928V126.808C48.1761 126.861 48.1548 126.909 48.1121 126.952C48.0801 126.984 48.0375 127 47.9841 127H46.5121C46.4588 127 46.4108 126.984 46.3681 126.952C46.3361 126.909 46.3201 126.861 46.3201 126.808V119.016C46.3201 118.963 46.3361 118.92 46.3681 118.888C46.4108 118.845 46.4588 118.824 46.5121 118.824H47.9841C48.0375 118.824 48.0801 118.845 48.1121 118.888C48.1548 118.92 48.1761 118.963 48.1761 119.016V119.528C48.1761 119.56 48.1868 119.581 48.2081 119.592C48.2295 119.603 48.2455 119.592 48.2561 119.56C48.6935 118.984 49.3548 118.696 50.2401 118.696ZM56.0793 117.704C55.7486 117.704 55.4766 117.597 55.2633 117.384C55.0499 117.171 54.9433 116.899 54.9433 116.568C54.9433 116.237 55.0499 115.965 55.2633 115.752C55.4766 115.539 55.7486 115.432 56.0793 115.432C56.4099 115.432 56.6819 115.539 56.8953 115.752C57.1086 115.965 57.2153 116.237 57.2153 116.568C57.2153 116.899 57.1086 117.171 56.8953 117.384C56.6819 117.597 56.4099 117.704 56.0793 117.704ZM55.3113 127C55.2579 127 55.2099 126.984 55.1673 126.952C55.1353 126.909 55.1193 126.861 55.1193 126.808V119C55.1193 118.947 55.1353 118.904 55.1673 118.872C55.2099 118.829 55.2579 118.808 55.3113 118.808H56.7833C56.8366 118.808 56.8793 118.829 56.9113 118.872C56.9539 118.904 56.9753 118.947 56.9753 119V126.808C56.9753 126.861 56.9539 126.909 56.9113 126.952C56.8793 126.984 56.8366 127 56.7833 127H55.3113ZM63.4374 120.136C63.4374 120.189 63.416 120.237 63.3734 120.28C63.3414 120.312 63.2987 120.328 63.2454 120.328H61.6134C61.56 120.328 61.5334 120.355 61.5334 120.408V124.264C61.5334 124.669 61.6187 124.963 61.7894 125.144C61.9707 125.325 62.2534 125.416 62.6374 125.416H63.1174C63.1707 125.416 63.2134 125.437 63.2454 125.48C63.288 125.512 63.3094 125.555 63.3094 125.608V126.808C63.3094 126.925 63.2454 126.995 63.1174 127.016L62.2854 127.032C61.4427 127.032 60.8134 126.888 60.3974 126.6C59.9814 126.312 59.768 125.768 59.7574 124.968V120.408C59.7574 120.355 59.7307 120.328 59.6774 120.328H58.7654C58.712 120.328 58.664 120.312 58.6214 120.28C58.5894 120.237 58.5734 120.189 58.5734 120.136V119.016C58.5734 118.963 58.5894 118.92 58.6214 118.888C58.664 118.845 58.712 118.824 58.7654 118.824H59.6774C59.7307 118.824 59.7574 118.797 59.7574 118.744V116.872C59.7574 116.819 59.7734 116.776 59.8054 116.744C59.848 116.701 59.896 116.68 59.9494 116.68H61.3414C61.3947 116.68 61.4374 116.701 61.4694 116.744C61.512 116.776 61.5334 116.819 61.5334 116.872V118.744C61.5334 118.797 61.56 118.824 61.6134 118.824H63.2454C63.2987 118.824 63.3414 118.845 63.3734 118.888C63.416 118.92 63.4374 118.963 63.4374 119.016V120.136ZM68.4015 127.128C67.5588 127.128 66.8335 126.915 66.2255 126.488C65.6282 126.061 65.2068 125.469 64.9615 124.712C64.7802 124.136 64.6895 123.528 64.6895 122.888C64.6895 122.205 64.7748 121.597 64.9455 121.064C65.1908 120.317 65.6175 119.736 66.2255 119.32C66.8335 118.904 67.5642 118.696 68.4175 118.696C69.2282 118.696 69.9268 118.904 70.5135 119.32C71.1108 119.736 71.5322 120.312 71.7775 121.048C71.9695 121.56 72.0655 122.168 72.0655 122.872C72.0655 123.544 71.9748 124.152 71.7935 124.696C71.5482 125.453 71.1268 126.051 70.5295 126.488C69.9322 126.915 69.2228 127.128 68.4015 127.128ZM68.4015 125.528C68.7962 125.528 69.1322 125.416 69.4095 125.192C69.6975 124.968 69.9055 124.653 70.0335 124.248C70.1402 123.896 70.1935 123.448 70.1935 122.904C70.1935 122.328 70.1402 121.88 70.0335 121.56C69.9162 121.155 69.7135 120.845 69.4255 120.632C69.1375 120.408 68.7855 120.296 68.3695 120.296C67.9748 120.296 67.6335 120.408 67.3455 120.632C67.0575 120.845 66.8495 121.155 66.7215 121.56C66.6148 121.933 66.5615 122.381 66.5615 122.904C66.5615 123.427 66.6148 123.875 66.7215 124.248C66.8388 124.653 67.0415 124.968 67.3295 125.192C67.6282 125.416 67.9855 125.528 68.4015 125.528ZM77.6281 118.728C77.9695 118.728 78.2681 118.797 78.5241 118.936C78.6095 118.979 78.6415 119.059 78.6201 119.176L78.3481 120.616C78.3375 120.744 78.2628 120.781 78.1241 120.728C77.9641 120.675 77.7775 120.648 77.5641 120.648C77.4255 120.648 77.3188 120.653 77.2441 120.664C76.7961 120.685 76.4228 120.845 76.1241 121.144C75.8255 121.432 75.6761 121.811 75.6761 122.28V126.808C75.6761 126.861 75.6548 126.909 75.6121 126.952C75.5801 126.984 75.5375 127 75.4841 127H74.0121C73.9588 127 73.9108 126.984 73.8681 126.952C73.8361 126.909 73.8201 126.861 73.8201 126.808V119.016C73.8201 118.963 73.8361 118.92 73.8681 118.888C73.9108 118.845 73.9588 118.824 74.0121 118.824H75.4841C75.5375 118.824 75.5801 118.845 75.6121 118.888C75.6548 118.92 75.6761 118.963 75.6761 119.016V119.736C75.6761 119.779 75.6815 119.805 75.6921 119.816C75.7135 119.816 75.7348 119.8 75.7561 119.768C76.2041 119.075 76.8281 118.728 77.6281 118.728ZM82.8776 118.696C83.5496 118.696 84.1416 118.813 84.6536 119.048C85.1656 119.283 85.5603 119.608 85.8376 120.024C86.115 120.429 86.2536 120.893 86.2536 121.416V126.808C86.2536 126.861 86.2323 126.909 86.1896 126.952C86.1576 126.984 86.115 127 86.0616 127H84.5896C84.5363 127 84.4883 126.984 84.4456 126.952C84.4136 126.909 84.3976 126.861 84.3976 126.808V126.296C84.3976 126.264 84.387 126.248 84.3656 126.248C84.3443 126.237 84.323 126.243 84.3016 126.264C83.779 126.84 83.0216 127.128 82.0296 127.128C81.2296 127.128 80.5683 126.925 80.0456 126.52C79.5336 126.115 79.2776 125.512 79.2776 124.712C79.2776 123.88 79.5656 123.235 80.1416 122.776C80.7283 122.307 81.5496 122.072 82.6056 122.072H84.3176C84.371 122.072 84.3976 122.045 84.3976 121.992V121.608C84.3976 121.192 84.275 120.872 84.0296 120.648C83.7843 120.413 83.4163 120.296 82.9256 120.296C82.5203 120.296 82.1896 120.371 81.9336 120.52C81.6883 120.659 81.5336 120.856 81.4696 121.112C81.4376 121.24 81.363 121.293 81.2456 121.272L79.6936 121.08C79.6403 121.069 79.5923 121.053 79.5496 121.032C79.5176 121 79.507 120.963 79.5176 120.92C79.603 120.269 79.9496 119.736 80.5576 119.32C81.1763 118.904 81.9496 118.696 82.8776 118.696ZM82.4936 125.656C83.0163 125.656 83.4643 125.517 83.8376 125.24C84.211 124.963 84.3976 124.611 84.3976 124.184V123.432C84.3976 123.379 84.371 123.352 84.3176 123.352H82.9736C82.4083 123.352 81.9603 123.459 81.6296 123.672C81.3096 123.885 81.1496 124.189 81.1496 124.584C81.1496 124.925 81.2723 125.192 81.5176 125.384C81.7736 125.565 82.099 125.656 82.4936 125.656ZM96.869 118.696C97.6903 118.696 98.3303 118.947 98.789 119.448C99.2583 119.939 99.493 120.627 99.493 121.512V126.808C99.493 126.861 99.4717 126.909 99.429 126.952C99.397 126.984 99.3543 127 99.301 127H97.845C97.7917 127 97.7437 126.984 97.701 126.952C97.669 126.909 97.653 126.861 97.653 126.808V121.896C97.653 121.405 97.5197 121.016 97.253 120.728C96.997 120.44 96.6503 120.296 96.213 120.296C95.7757 120.296 95.4183 120.44 95.141 120.728C94.8637 121.016 94.725 121.4 94.725 121.88V126.808C94.725 126.861 94.7037 126.909 94.661 126.952C94.629 126.984 94.5863 127 94.533 127H93.077C93.0237 127 92.9757 126.984 92.933 126.952C92.901 126.909 92.885 126.861 92.885 126.808V121.896C92.885 121.405 92.7517 121.016 92.485 120.728C92.2183 120.44 91.8663 120.296 91.429 120.296C91.0237 120.296 90.6877 120.413 90.421 120.648C90.165 120.883 90.0157 121.203 89.973 121.608V126.808C89.973 126.861 89.9517 126.909 89.909 126.952C89.877 126.984 89.8343 127 89.781 127H88.309C88.2557 127 88.2077 126.984 88.165 126.952C88.133 126.909 88.117 126.861 88.117 126.808V119.016C88.117 118.963 88.133 118.92 88.165 118.888C88.2077 118.845 88.2557 118.824 88.309 118.824H89.781C89.8343 118.824 89.877 118.845 89.909 118.888C89.9517 118.92 89.973 118.963 89.973 119.016V119.544C89.973 119.576 89.9837 119.597 90.005 119.608C90.0263 119.619 90.0477 119.608 90.069 119.576C90.3037 119.277 90.5917 119.059 90.933 118.92C91.285 118.771 91.6743 118.696 92.101 118.696C92.6237 118.696 93.0823 118.803 93.477 119.016C93.8717 119.229 94.1757 119.539 94.389 119.944C94.421 119.987 94.4583 119.987 94.501 119.944C94.7357 119.517 95.061 119.203 95.477 119C95.893 118.797 96.357 118.696 96.869 118.696ZM108.216 121.992C108.259 122.259 108.28 122.557 108.28 122.888L108.264 123.384C108.264 123.512 108.2 123.576 108.072 123.576H103.064C103.011 123.576 102.984 123.603 102.984 123.656C103.016 124.008 103.064 124.248 103.128 124.376C103.384 125.144 104.008 125.533 105 125.544C105.725 125.544 106.301 125.245 106.728 124.648C106.771 124.584 106.824 124.552 106.888 124.552C106.931 124.552 106.968 124.568 107 124.6L107.992 125.416C108.088 125.491 108.104 125.576 108.04 125.672C107.709 126.141 107.267 126.504 106.712 126.76C106.168 127.016 105.56 127.144 104.888 127.144C104.056 127.144 103.347 126.957 102.76 126.584C102.184 126.211 101.763 125.688 101.496 125.016C101.251 124.44 101.128 123.64 101.128 122.616C101.128 121.997 101.192 121.496 101.32 121.112C101.533 120.365 101.933 119.779 102.52 119.352C103.117 118.915 103.832 118.696 104.664 118.696C106.765 118.696 107.949 119.795 108.216 121.992ZM104.664 120.296C104.269 120.296 103.939 120.397 103.672 120.6C103.416 120.792 103.235 121.064 103.128 121.416C103.064 121.597 103.021 121.832 103 122.12C102.979 122.173 103 122.2 103.064 122.2H106.312C106.365 122.2 106.392 122.173 106.392 122.12C106.371 121.853 106.339 121.651 106.296 121.512C106.2 121.128 106.008 120.829 105.72 120.616C105.443 120.403 105.091 120.296 104.664 120.296ZM113.896 118.696C114.76 118.696 115.448 118.952 115.96 119.464C116.483 119.976 116.744 120.675 116.744 121.56V126.808C116.744 126.861 116.723 126.909 116.68 126.952C116.648 126.984 116.606 127 116.552 127H115.08C115.027 127 114.979 126.984 114.936 126.952C114.904 126.909 114.888 126.861 114.888 126.808V121.944C114.888 121.453 114.75 121.059 114.472 120.76C114.195 120.451 113.827 120.296 113.368 120.296C112.91 120.296 112.536 120.445 112.248 120.744C111.971 121.043 111.832 121.437 111.832 121.928V126.808C111.832 126.861 111.811 126.909 111.768 126.952C111.736 126.984 111.694 127 111.64 127H110.168C110.115 127 110.067 126.984 110.024 126.952C109.992 126.909 109.976 126.861 109.976 126.808V119.016C109.976 118.963 109.992 118.92 110.024 118.888C110.067 118.845 110.115 118.824 110.168 118.824H111.64C111.694 118.824 111.736 118.845 111.768 118.888C111.811 118.92 111.832 118.963 111.832 119.016V119.528C111.832 119.56 111.843 119.581 111.864 119.592C111.886 119.603 111.902 119.592 111.912 119.56C112.35 118.984 113.011 118.696 113.896 118.696ZM123.016 120.136C123.016 120.189 122.994 120.237 122.952 120.28C122.92 120.312 122.877 120.328 122.824 120.328H121.192C121.138 120.328 121.112 120.355 121.112 120.408V124.264C121.112 124.669 121.197 124.963 121.368 125.144C121.549 125.325 121.832 125.416 122.216 125.416H122.696C122.749 125.416 122.792 125.437 122.824 125.48C122.866 125.512 122.888 125.555 122.888 125.608V126.808C122.888 126.925 122.824 126.995 122.696 127.016L121.864 127.032C121.021 127.032 120.392 126.888 119.976 126.6C119.56 126.312 119.346 125.768 119.336 124.968V120.408C119.336 120.355 119.309 120.328 119.256 120.328H118.344C118.29 120.328 118.242 120.312 118.2 120.28C118.168 120.237 118.152 120.189 118.152 120.136V119.016C118.152 118.963 118.168 118.92 118.2 118.888C118.242 118.845 118.29 118.824 118.344 118.824H119.256C119.309 118.824 119.336 118.797 119.336 118.744V116.872C119.336 116.819 119.352 116.776 119.384 116.744C119.426 116.701 119.474 116.68 119.528 116.68H120.92C120.973 116.68 121.016 116.701 121.048 116.744C121.09 116.776 121.112 116.819 121.112 116.872V118.744C121.112 118.797 121.138 118.824 121.192 118.824H122.824C122.877 118.824 122.92 118.845 122.952 118.888C122.994 118.92 123.016 118.963 123.016 119.016V120.136ZM127.98 127.128C127.137 127.128 126.412 126.915 125.804 126.488C125.206 126.061 124.785 125.469 124.54 124.712C124.358 124.136 124.268 123.528 124.268 122.888C124.268 122.205 124.353 121.597 124.524 121.064C124.769 120.317 125.196 119.736 125.804 119.32C126.412 118.904 127.142 118.696 127.996 118.696C128.806 118.696 129.505 118.904 130.092 119.32C130.689 119.736 131.11 120.312 131.356 121.048C131.548 121.56 131.644 122.168 131.644 122.872C131.644 123.544 131.553 124.152 131.372 124.696C131.126 125.453 130.705 126.051 130.108 126.488C129.51 126.915 128.801 127.128 127.98 127.128ZM127.98 125.528C128.374 125.528 128.71 125.416 128.988 125.192C129.276 124.968 129.484 124.653 129.612 124.248C129.718 123.896 129.772 123.448 129.772 122.904C129.772 122.328 129.718 121.88 129.612 121.56C129.494 121.155 129.292 120.845 129.004 120.632C128.716 120.408 128.364 120.296 127.948 120.296C127.553 120.296 127.212 120.408 126.924 120.632C126.636 120.845 126.428 121.155 126.3 121.56C126.193 121.933 126.14 122.381 126.14 122.904C126.14 123.427 126.193 123.875 126.3 124.248C126.417 124.653 126.62 124.968 126.908 125.192C127.206 125.416 127.564 125.528 127.98 125.528ZM136.438 127.096C135.766 127.096 135.174 127 134.662 126.808C134.161 126.605 133.772 126.333 133.494 125.992C133.217 125.64 133.078 125.251 133.078 124.824V124.68C133.078 124.627 133.094 124.584 133.126 124.552C133.169 124.509 133.217 124.488 133.27 124.488H134.678C134.732 124.488 134.774 124.509 134.806 124.552C134.849 124.584 134.87 124.627 134.87 124.68V124.712C134.87 124.979 135.014 125.213 135.302 125.416C135.601 125.608 135.974 125.704 136.422 125.704C136.849 125.704 137.196 125.619 137.462 125.448C137.729 125.267 137.862 125.043 137.862 124.776C137.862 124.531 137.75 124.349 137.526 124.232C137.313 124.104 136.961 123.971 136.47 123.832L135.862 123.64C135.318 123.48 134.86 123.309 134.486 123.128C134.113 122.947 133.798 122.701 133.542 122.392C133.286 122.072 133.158 121.667 133.158 121.176C133.158 120.429 133.452 119.837 134.038 119.4C134.625 118.952 135.398 118.728 136.358 118.728C137.009 118.728 137.58 118.835 138.07 119.048C138.561 119.251 138.94 119.539 139.206 119.912C139.473 120.275 139.606 120.691 139.606 121.16C139.606 121.213 139.585 121.261 139.542 121.304C139.51 121.336 139.468 121.352 139.414 121.352H138.054C138.001 121.352 137.953 121.336 137.91 121.304C137.878 121.261 137.862 121.213 137.862 121.16C137.862 120.883 137.724 120.653 137.446 120.472C137.18 120.28 136.812 120.184 136.342 120.184C135.926 120.184 135.585 120.264 135.318 120.424C135.062 120.573 134.934 120.787 134.934 121.064C134.934 121.32 135.057 121.517 135.302 121.656C135.558 121.784 135.98 121.928 136.566 122.088L136.918 122.184C137.484 122.355 137.958 122.531 138.342 122.712C138.726 122.883 139.052 123.128 139.318 123.448C139.585 123.757 139.718 124.163 139.718 124.664C139.718 125.421 139.42 126.019 138.822 126.456C138.225 126.883 137.43 127.096 136.438 127.096Z" fill="#23AFAE"/>
</svg>
