<svg width="254" height="80" viewBox="0 0 254 80" fill="none" xmlns="http://www.w3.org/2000/svg">
<path d="M71.9872 19.8192C71.8624 24.36 71.736 28.3552 71.3328 32.3296C70.6848 38.6944 69.7328 44.9984 67.7008 51.1088C65.968 56.3248 62.8464 60.5488 58.9792 64.3488C53.952 69.2864 48.3456 73.4224 42.24 76.9216C40.8256 77.7328 39.6112 77.8384 38.112 76.9984C29.8928 72.3936 22.6512 66.624 16.7024 59.3008C14.496 56.5808 13.216 53.3696 12.1808 50.0608C10.712 45.3648 9.81924 40.5552 9.25284 35.6704C8.49972 28.9779 8.17 22.2445 8.26564 15.5104C8.28964 13.2944 8.77444 12.6784 10.9856 12.3776C17.7184 11.4624 24.0816 9.3376 30.28 6.64C33.08 5.416 35.84 4.1088 38.56 2.7376C39.7152 2.1536 40.7376 2.2432 41.8672 2.8224C46.2576 5.0768 50.7232 7.1696 55.3712 8.8496C59.5408 10.3552 63.7888 11.5616 68.1712 12.2512C68.7488 12.3424 69.336 12.3776 69.9088 12.4912C71.2496 12.76 71.968 13.6256 71.9888 15.0112C72 16.7952 71.9872 18.5776 71.9872 19.8192Z" fill="#1A6969"/>
<path d="M69.6209 21.424C69.3873 30.0192 68.6609 38.4384 66.5729 46.6944C65.8161 49.6928 64.8129 52.592 63.3073 55.3088C61.7681 58.0928 59.6273 60.3936 57.3985 62.6128C52.4616 67.52 46.8563 71.7053 40.7489 75.0448C40.2689 75.3104 39.9201 75.3088 39.4497 75.0448C31.5441 70.704 24.5937 65.1824 18.8513 58.2112C16.3553 55.1824 14.9921 51.5616 13.9601 47.8112C12.5057 42.5312 11.6865 37.152 11.1889 31.7088C10.6945 26.3152 10.5489 20.9136 10.5809 15.5024C10.5809 14.9552 10.6897 14.7312 11.2897 14.6528C21.2225 13.3584 30.2753 9.4912 39.1297 5.0528C39.8369 4.696 40.3777 4.6736 41.1009 5.04C47.6337 8.3472 54.3073 11.3104 61.4209 13.1872C63.9159 13.8485 66.4522 14.3429 69.0129 14.6672C69.5873 14.7392 69.6529 14.944 69.6529 15.4672C69.6001 17.488 69.6209 19.5136 69.6209 21.424Z" fill="#FEFEFE"/>
<path d="M64.9168 23.7664C64.4176 31.784 63.6928 39.744 61.4768 47.5152C60.1152 52.2912 57.344 56.0864 53.864 59.4864C49.8686 63.3704 45.4407 66.7832 40.6672 69.6576C40.2816 69.8912 40.016 69.9344 39.6 69.6816C33.224 65.8048 27.4912 61.1776 22.6944 55.4256C20.76 53.1056 19.6448 50.3888 18.7728 47.5536C17.264 42.648 16.4912 37.6032 15.9984 32.5136C15.5824 28.2144 15.3952 23.904 15.3264 19.5872C15.3264 19.1424 15.3568 18.8528 15.8896 18.7456C24.0864 17.0976 31.768 14.0096 39.224 10.3104C39.8544 9.9984 40.352 9.9808 40.984 10.2992C46.4638 13.0787 52.1716 15.3837 58.0448 17.1888C60.0816 17.806 62.1483 18.3203 64.2368 18.7296C64.7824 18.8368 64.9568 19.0496 64.9344 19.6176C64.88 20.9952 64.9168 22.3808 64.9168 23.7664Z" fill="#1A6969"/>
<path d="M56.4 39.4336C54.7296 41.0336 53.0816 42.6256 51.44 44.2144C48.1056 47.4368 44.7722 50.6597 41.44 53.8832C40.0256 55.2496 38.8928 55.1424 37.76 53.5056C36.6933 51.9483 35.6442 50.3765 34.6128 48.7904C34.5266 48.6305 34.3952 48.4997 34.2349 48.4143C34.0746 48.3289 33.8927 48.2928 33.712 48.3104C31.8992 48.3328 30.088 48.3312 28.272 48.3104C25.6336 48.2912 23.872 46.528 23.8688 43.8832C23.8592 38.0165 23.8592 32.1536 23.8688 26.2944C23.8688 23.8944 25.664 22.0912 28.0464 22.0816C30.232 22.0704 32.4176 22.0816 34.6064 22.0816C34.8206 22.0633 35.0363 22.0773 35.2464 22.1232C35.736 22.2832 36.1168 22.6032 36.12 23.1408C36.12 23.6208 35.7664 23.88 35.32 24.0224C35.0131 24.1119 34.6939 24.1519 34.3744 24.1408C32.3504 24.1408 30.3248 24.1312 28.2944 24.1408C26.8192 24.1488 25.984 24.9264 25.9792 26.3888C25.9653 32.2256 25.9701 38.0619 25.9936 43.8976C25.9936 45.448 26.848 46.2304 28.4032 46.2352C30.536 46.2352 32.6672 46.2496 34.8032 46.2256C34.9955 46.2092 35.1885 46.2488 35.3589 46.3396C35.5293 46.4305 35.6697 46.5687 35.7632 46.7376C36.9424 48.5424 38.1632 50.3232 39.3424 52.1248C39.592 52.5056 39.7296 52.648 40.1424 52.2464C44.7461 47.7664 49.3637 43.3029 53.9952 38.856C54.1972 38.6839 54.4111 38.5262 54.6352 38.384L54.528 38.16L51.968 37.9296C51.4368 37.8832 50.904 37.856 50.376 37.7904C49.5664 37.6912 49.176 37.248 49.2432 36.544C49.3024 35.904 49.7936 35.512 50.5552 35.5632C51.9632 35.6592 53.3696 35.7904 54.776 35.9104C55.576 35.9776 56.3664 36.0704 57.1632 36.1168C57.8688 36.1552 58.2304 36.544 58.352 37.1888C58.7424 39.2544 59.1312 41.32 59.4976 43.3888C59.6576 44.2976 59.2992 44.888 58.6 44.9744C57.9008 45.0608 57.4368 44.6016 57.2704 43.6944C57.0256 42.36 56.7728 41.0272 56.52 39.6944C56.4884 39.6038 56.4483 39.5165 56.4 39.4336Z" fill="#FEFEFE"/>
<path d="M45.28 25.4176C46.2256 25.1712 46.7376 25.5152 46.7392 26.4592C46.7504 31.248 46.7392 36.0352 46.7472 40.824C46.7472 41.5024 46.488 41.9744 45.776 42.0496C45.1872 42.112 44.656 41.5696 44.656 40.8496C44.656 36.8336 44.6704 32.8176 44.68 28.8016C44.7705 28.6004 44.8173 28.3822 44.8173 28.1616C44.8173 27.941 44.7705 27.7228 44.68 27.5216C44.6624 27.0272 44.5392 26.5248 44.7696 26.0448C45.0608 26.216 45.0096 25.8928 45.1184 25.8016C45.1616 25.672 45.2704 25.5664 45.28 25.4176Z" fill="#15CDD3"/>
<path d="M41.7839 35.0944C41.7839 36.984 41.7839 38.8736 41.7839 40.7648C41.7839 41.5792 41.4239 42.0448 40.8095 42.0576C40.1951 42.0704 39.7007 41.5392 39.6991 40.76C39.6895 37.0064 39.6895 33.2528 39.6991 29.4992C39.6991 28.6896 40.1487 28.1632 40.7695 28.1728C41.4383 28.184 41.7823 28.6256 41.7855 29.504C41.7871 31.368 41.7839 33.2304 41.7839 35.0944Z" fill="#15CDD3"/>
<path d="M36.8289 37.2032C36.8289 38.4272 36.8385 39.6512 36.8289 40.8752C36.8289 41.6096 36.4209 42.0944 35.8289 42.0496C35.1425 41.9968 34.7569 41.5696 34.7505 40.8912C34.7313 38.4176 34.7313 35.9429 34.7505 33.4672C34.7505 32.7824 35.2753 32.2832 35.8433 32.3376C36.5489 32.4064 36.8465 32.8288 36.8369 33.5312C36.8161 34.7552 36.8305 35.9792 36.8289 37.2032Z" fill="#15CDD3"/>
<path d="M31.8719 39.2C31.8719 39.784 31.8719 40.368 31.8719 40.952C31.8847 41.592 31.5519 41.984 30.9503 42.0416C30.3487 42.0992 29.8607 41.7216 29.8303 41.1376C29.7666 39.814 29.7692 38.4881 29.8383 37.1648C29.8687 36.5616 30.2991 36.24 30.9487 36.2976C31.5983 36.3552 31.8623 36.7568 31.8671 37.3696C31.8719 37.9824 31.8719 38.5904 31.8719 39.2Z" fill="#15CDD3"/>
<path d="M44.6816 27.5264C45.1083 27.9531 45.1083 28.3797 44.6816 28.8064V27.5264Z" fill="#26D1D7"/>
<path d="M45.2799 25.7648C45.2783 25.8556 45.258 25.945 45.2203 26.0276C45.1826 26.1102 45.1282 26.1841 45.0607 26.2448C44.9951 26.3088 44.9256 26.3686 44.8527 26.424L44.7759 26.056L44.9439 25.736C45.0479 25.7776 45.1711 25.664 45.2799 25.7648Z" fill="#40D6DA"/>
<path d="M45.2801 25.7648C45.1633 25.7968 45.0369 25.9248 44.9441 25.7312C44.9702 25.655 45.0142 25.5862 45.0724 25.5305C45.1306 25.4749 45.2012 25.4339 45.2785 25.4112C45.4401 25.5328 45.3089 25.648 45.2801 25.7648Z" fill="#55DBDF"/>
<path d="M99.052 27.708C102.028 27.708 103.516 29.292 103.516 32.46V46.248C103.516 49.416 102.028 51 99.052 51H89.8V27.708H99.052ZM98.476 46.824V31.848C98.476 31.656 98.404 31.488 98.26 31.344C98.14 31.2 97.984 31.128 97.792 31.128H94.84V47.544H97.792C97.984 47.544 98.14 47.472 98.26 47.328C98.404 47.184 98.476 47.016 98.476 46.824ZM116.525 27.348C119.501 27.348 120.989 28.932 120.989 32.1V51H115.949V43.188H112.313V51H107.273V32.1C107.273 28.932 108.761 27.348 111.737 27.348H116.525ZM112.313 39.3H115.949V31.488C115.949 31.296 115.877 31.128 115.733 30.984C115.613 30.84 115.457 30.768 115.265 30.768H112.997C112.805 30.768 112.637 30.84 112.493 30.984C112.373 31.128 112.313 31.296 112.313 31.488V39.3ZM123.413 31.992V27.708H136.013V31.992H132.233V51H127.193V31.992H123.413ZM147.568 27.348C150.544 27.348 152.032 28.932 152.032 32.1V51H146.992V43.188H143.356V51H138.316V32.1C138.316 28.932 139.804 27.348 142.78 27.348H147.568ZM143.356 39.3H146.992V31.488C146.992 31.296 146.92 31.128 146.776 30.984C146.656 30.84 146.5 30.768 146.308 30.768H144.04C143.848 30.768 143.68 30.84 143.536 30.984C143.416 31.128 143.356 31.296 143.356 31.488V39.3ZM175.99 33.828H171.202V31.992C171.202 31.8 171.13 31.632 170.986 31.488C170.866 31.344 170.71 31.272 170.518 31.272H168.538C168.346 31.272 168.178 31.344 168.034 31.488C167.914 31.632 167.854 31.8 167.854 31.992V36.132C167.854 36.324 167.914 36.492 168.034 36.636C168.178 36.78 168.346 36.852 168.538 36.852H171.778C174.754 36.9 176.242 38.484 176.242 41.604V46.608C176.242 49.776 174.754 51.36 171.778 51.36H167.53C164.554 51.36 163.066 49.776 163.066 46.608V44.196H167.854V46.788C167.854 46.98 167.914 47.148 168.034 47.292C168.178 47.436 168.346 47.508 168.538 47.508H170.77C170.962 47.508 171.118 47.436 171.238 47.292C171.382 47.148 171.454 46.98 171.454 46.788V42.216C171.454 42.024 171.382 41.856 171.238 41.712C171.118 41.568 170.962 41.496 170.77 41.496H167.53C164.554 41.496 163.066 39.912 163.066 36.744V32.1C163.066 28.932 164.554 27.348 167.53 27.348H171.526C174.502 27.348 175.99 28.932 175.99 32.1V33.828ZM184.594 46.824H190.174V51H179.554V27.708H190.174V31.812H184.594V37.284H189.814V41.244H184.594V46.824ZM206.445 51H201.405V31.668C201.405 31.476 201.333 31.308 201.189 31.164C201.069 31.02 200.913 30.948 200.721 30.948H198.777C198.585 30.948 198.417 31.02 198.273 31.164C198.153 31.308 198.093 31.476 198.093 31.668V51H193.053V32.1C193.053 28.932 194.541 27.348 197.517 27.348H201.981C204.957 27.348 206.445 28.932 206.445 32.1V51ZM208.491 31.992V27.708H221.091V31.992H217.311V51H212.271V31.992H208.491ZM228.434 41.46V51H223.394V27.708H232.358C235.334 27.708 236.822 29.292 236.822 32.46V35.16C236.822 37.08 236.138 38.304 234.77 38.832C235.97 39.264 236.57 40.248 236.57 41.784V51H231.53V42.18C231.53 41.7 231.302 41.46 230.846 41.46H228.434ZM228.434 31.128V37.932H231.098C231.29 37.932 231.446 37.86 231.566 37.716C231.71 37.572 231.782 37.404 231.782 37.212V31.848C231.782 31.656 231.71 31.488 231.566 31.344C231.446 31.2 231.29 31.128 231.098 31.128H228.434ZM253.558 27.708L248.554 42.504V51H243.514V42.504L238.51 27.708H243.262L246.034 37.428L248.806 27.708H253.558Z" fill="#F1F2F4"/>
</svg>
