<svg width="253" height="80" viewBox="0 0 253 80" fill="none" xmlns="http://www.w3.org/2000/svg">
<path d="M71.9872 19.8192C71.8624 24.36 71.736 28.3552 71.3328 32.3296C70.6848 38.6944 69.7328 44.9984 67.7008 51.1088C65.968 56.3248 62.8464 60.5488 58.9792 64.3488C53.952 69.2864 48.3456 73.4224 42.24 76.9216C40.8256 77.7328 39.6112 77.8384 38.112 76.9984C29.8928 72.3936 22.6512 66.624 16.7024 59.3008C14.496 56.5808 13.216 53.3696 12.1808 50.0608C10.712 45.3648 9.81924 40.5552 9.25284 35.6704C8.49972 28.9779 8.17 22.2445 8.26564 15.5104C8.28964 13.2944 8.77444 12.6784 10.9856 12.3776C17.7184 11.4624 24.0816 9.33761 30.28 6.64001C33.08 5.41601 35.84 4.10881 38.56 2.73761C39.7152 2.15361 40.7376 2.24321 41.8672 2.82241C46.2576 5.07681 50.7232 7.16961 55.3712 8.84961C59.5408 10.3552 63.7888 11.5616 68.1712 12.2512C68.7488 12.3424 69.336 12.3776 69.9088 12.4912C71.2496 12.76 71.968 13.6256 71.9888 15.0112C72 16.7952 71.9872 18.5776 71.9872 19.8192Z" fill="#1A6969"/>
<path d="M69.6209 21.424C69.3873 30.0192 68.6609 38.4384 66.5729 46.6944C65.8161 49.6928 64.8129 52.592 63.3073 55.3088C61.7681 58.0928 59.6273 60.3936 57.3985 62.6128C52.4616 67.52 46.8563 71.7053 40.7489 75.0448C40.2689 75.3104 39.9201 75.3088 39.4497 75.0448C31.5441 70.704 24.5937 65.1824 18.8513 58.2112C16.3553 55.1824 14.9921 51.5616 13.9601 47.8112C12.5057 42.5312 11.6865 37.152 11.1889 31.7088C10.6945 26.3152 10.5489 20.9136 10.5809 15.5024C10.5809 14.9552 10.6897 14.7312 11.2897 14.6528C21.2225 13.3584 30.2753 9.49118 39.1297 5.05279C39.8369 4.69599 40.3777 4.67358 41.1009 5.03998C47.6337 8.34718 54.3073 11.3104 61.4209 13.1872C63.9159 13.8485 66.4522 14.3429 69.0129 14.6672C69.5873 14.7392 69.6529 14.944 69.6529 15.4672C69.6001 17.488 69.6209 19.5136 69.6209 21.424Z" fill="#FEFEFE"/>
<path d="M64.9168 23.7664C64.4176 31.784 63.6928 39.744 61.4768 47.5152C60.1152 52.2912 57.344 56.0864 53.864 59.4864C49.8686 63.3704 45.4407 66.7831 40.6672 69.6576C40.2816 69.8912 40.016 69.9344 39.6 69.6816C33.224 65.8048 27.4912 61.1776 22.6944 55.4256C20.76 53.1056 19.6448 50.3888 18.7728 47.5536C17.264 42.648 16.4912 37.6032 15.9984 32.5136C15.5824 28.2144 15.3952 23.904 15.3264 19.5872C15.3264 19.1424 15.3568 18.8528 15.8896 18.7456C24.0864 17.0976 31.768 14.0096 39.224 10.3104C39.8544 9.99839 40.352 9.98079 40.984 10.2992C46.4638 13.0787 52.1716 15.3837 58.0448 17.1888C60.0816 17.806 62.1483 18.3203 64.2368 18.7296C64.7824 18.8368 64.9568 19.0496 64.9344 19.6176C64.88 20.9952 64.9168 22.3808 64.9168 23.7664Z" fill="#1A6969"/>
<path d="M56.4 39.4336C54.7296 41.0336 53.0816 42.6256 51.44 44.2144C48.1056 47.4368 44.7722 50.6597 41.44 53.8832C40.0256 55.2496 38.8928 55.1424 37.76 53.5056C36.6933 51.9483 35.6442 50.3765 34.6128 48.7904C34.5266 48.6305 34.3952 48.4997 34.2349 48.4143C34.0746 48.3289 33.8927 48.2927 33.712 48.3104C31.8992 48.3328 30.088 48.3312 28.272 48.3104C25.6336 48.2912 23.872 46.528 23.8688 43.8832C23.8592 38.0165 23.8592 32.1536 23.8688 26.2944C23.8688 23.8944 25.664 22.0912 28.0464 22.0816C30.232 22.0704 32.4176 22.0816 34.6064 22.0816C34.8206 22.0633 35.0363 22.0773 35.2464 22.1232C35.736 22.2832 36.1168 22.6032 36.12 23.1408C36.12 23.6208 35.7664 23.88 35.32 24.0224C35.0131 24.1119 34.6939 24.1519 34.3744 24.1408C32.3504 24.1408 30.3248 24.1312 28.2944 24.1408C26.8192 24.1488 25.984 24.9264 25.9792 26.3888C25.9653 32.2256 25.9701 38.0619 25.9936 43.8976C25.9936 45.448 26.848 46.2304 28.4032 46.2352C30.536 46.2352 32.6672 46.2496 34.8032 46.2256C34.9955 46.2092 35.1885 46.2488 35.3589 46.3396C35.5293 46.4305 35.6697 46.5687 35.7632 46.7376C36.9424 48.5424 38.1632 50.3232 39.3424 52.1248C39.592 52.5056 39.7296 52.648 40.1424 52.2464C44.7461 47.7664 49.3637 43.3029 53.9952 38.856C54.1972 38.6839 54.4111 38.5262 54.6352 38.384L54.528 38.16L51.968 37.9296C51.4368 37.8832 50.904 37.856 50.376 37.7904C49.5664 37.6912 49.176 37.248 49.2432 36.544C49.3024 35.904 49.7936 35.512 50.5552 35.5632C51.9632 35.6592 53.3696 35.7904 54.776 35.9104C55.576 35.9776 56.3664 36.0704 57.1632 36.1168C57.8688 36.1552 58.2304 36.544 58.352 37.1888C58.7424 39.2544 59.1312 41.32 59.4976 43.3888C59.6576 44.2976 59.2992 44.888 58.6 44.9744C57.9008 45.0608 57.4368 44.6016 57.2704 43.6944C57.0256 42.36 56.7728 41.0272 56.52 39.6944C56.4884 39.6038 56.4483 39.5165 56.4 39.4336V39.4336Z" fill="#FEFEFE"/>
<path d="M45.28 25.4176C46.2256 25.1712 46.7376 25.5152 46.7392 26.4592C46.7504 31.248 46.7392 36.0352 46.7472 40.824C46.7472 41.5024 46.488 41.9744 45.776 42.0496C45.1872 42.112 44.656 41.5696 44.656 40.8496C44.656 36.8336 44.6704 32.8176 44.68 28.8016C44.7705 28.6004 44.8173 28.3823 44.8173 28.1616C44.8173 27.941 44.7705 27.7228 44.68 27.5216C44.6624 27.0272 44.5392 26.5248 44.7696 26.0448C45.0608 26.216 45.0096 25.8928 45.1184 25.8016C45.1616 25.672 45.2704 25.5664 45.28 25.4176Z" fill="#15CDD3"/>
<path d="M41.7839 35.0944C41.7839 36.984 41.7839 38.8736 41.7839 40.7648C41.7839 41.5792 41.4239 42.0448 40.8095 42.0576C40.1951 42.0704 39.7007 41.5392 39.6991 40.76C39.6895 37.0064 39.6895 33.2528 39.6991 29.4992C39.6991 28.6896 40.1487 28.1632 40.7695 28.1728C41.4383 28.184 41.7823 28.6256 41.7855 29.504C41.7871 31.368 41.7839 33.2304 41.7839 35.0944Z" fill="#15CDD3"/>
<path d="M36.8289 37.2032C36.8289 38.4272 36.8385 39.6512 36.8289 40.8752C36.8289 41.6096 36.4209 42.0944 35.8289 42.0496C35.1425 41.9968 34.7569 41.5696 34.7505 40.8912C34.7313 38.4176 34.7313 35.9429 34.7505 33.4672C34.7505 32.7824 35.2753 32.2832 35.8433 32.3376C36.5489 32.4064 36.8465 32.8288 36.8369 33.5312C36.8161 34.7552 36.8305 35.9792 36.8289 37.2032Z" fill="#15CDD3"/>
<path d="M31.8719 39.2C31.8719 39.784 31.8719 40.368 31.8719 40.952C31.8847 41.592 31.5519 41.984 30.9503 42.0416C30.3487 42.0992 29.8607 41.7216 29.8303 41.1376C29.7666 39.8141 29.7692 38.4881 29.8383 37.1648C29.8687 36.5616 30.2991 36.24 30.9487 36.2976C31.5983 36.3552 31.8623 36.7568 31.8671 37.3696C31.8719 37.9824 31.8719 38.5904 31.8719 39.2Z" fill="#15CDD3"/>
<path d="M44.6816 27.5264C45.1083 27.9531 45.1083 28.3797 44.6816 28.8064V27.5264Z" fill="#26D1D7"/>
<path d="M45.2799 25.7648C45.2783 25.8556 45.258 25.945 45.2203 26.0276C45.1826 26.1102 45.1282 26.1841 45.0607 26.2448C44.9951 26.3088 44.9256 26.3686 44.8527 26.424L44.7759 26.056L44.9439 25.736C45.0479 25.7776 45.1711 25.664 45.2799 25.7648Z" fill="#40D6DA"/>
<path d="M45.2801 25.7648C45.1633 25.7968 45.0369 25.9248 44.9441 25.7312C44.9702 25.655 45.0142 25.5862 45.0724 25.5305C45.1306 25.4749 45.2012 25.4339 45.2785 25.4112C45.4401 25.5328 45.3089 25.648 45.2801 25.7648Z" fill="#55DBDF"/>
<path d="M98.052 21.708C101.028 21.708 102.516 23.292 102.516 26.46V40.248C102.516 43.416 101.028 45 98.052 45H88.8V21.708H98.052ZM97.476 40.824V25.848C97.476 25.656 97.404 25.488 97.26 25.344C97.14 25.2 96.984 25.128 96.792 25.128H93.84V41.544H96.792C96.984 41.544 97.14 41.472 97.26 41.328C97.404 41.184 97.476 41.016 97.476 40.824ZM115.525 21.348C118.501 21.348 119.989 22.932 119.989 26.1V45H114.949V37.188H111.313V45H106.273V26.1C106.273 22.932 107.761 21.348 110.737 21.348H115.525ZM111.313 33.3H114.949V25.488C114.949 25.296 114.877 25.128 114.733 24.984C114.613 24.84 114.457 24.768 114.265 24.768H111.997C111.805 24.768 111.637 24.84 111.493 24.984C111.373 25.128 111.313 25.296 111.313 25.488V33.3ZM122.413 25.992V21.708H135.013V25.992H131.233V45H126.193V25.992H122.413ZM146.568 21.348C149.544 21.348 151.032 22.932 151.032 26.1V45H145.992V37.188H142.356V45H137.316V26.1C137.316 22.932 138.804 21.348 141.78 21.348H146.568ZM142.356 33.3H145.992V25.488C145.992 25.296 145.92 25.128 145.776 24.984C145.656 24.84 145.5 24.768 145.308 24.768H143.04C142.848 24.768 142.68 24.84 142.536 24.984C142.416 25.128 142.356 25.296 142.356 25.488V33.3ZM170.742 41.184V37.584H175.53V40.608C175.53 43.776 174.042 45.36 171.066 45.36H166.53C163.554 45.36 162.066 43.776 162.066 40.608V26.1C162.066 22.932 163.554 21.348 166.53 21.348H171.066C174.042 21.348 175.53 22.932 175.53 26.1V28.296H170.742V25.488C170.742 25.296 170.67 25.128 170.526 24.984C170.406 24.84 170.25 24.768 170.058 24.768H167.79C167.598 24.768 167.43 24.84 167.286 24.984C167.166 25.128 167.106 25.296 167.106 25.488V41.184C167.106 41.376 167.166 41.544 167.286 41.688C167.43 41.832 167.598 41.904 167.79 41.904H170.058C170.25 41.904 170.406 41.832 170.526 41.688C170.67 41.544 170.742 41.376 170.742 41.184ZM183.594 40.824H189.174V45H178.554V21.708H189.174V25.812H183.594V31.284H188.814V35.244H183.594V40.824ZM205.445 45H200.405V25.668C200.405 25.476 200.333 25.308 200.189 25.164C200.069 25.02 199.913 24.948 199.721 24.948H197.777C197.585 24.948 197.417 25.02 197.273 25.164C197.153 25.308 197.093 25.476 197.093 25.668V45H192.053V26.1C192.053 22.932 193.541 21.348 196.517 21.348H200.981C203.957 21.348 205.445 22.932 205.445 26.1V45ZM207.491 25.992V21.708H220.091V25.992H216.311V45H211.271V25.992H207.491ZM227.434 35.46V45H222.394V21.708H231.358C234.334 21.708 235.822 23.292 235.822 26.46V29.16C235.822 31.08 235.138 32.304 233.77 32.832C234.97 33.264 235.57 34.248 235.57 35.784V45H230.53V36.18C230.53 35.7 230.302 35.46 229.846 35.46H227.434ZM227.434 25.128V31.932H230.098C230.29 31.932 230.446 31.86 230.566 31.716C230.71 31.572 230.782 31.404 230.782 31.212V25.848C230.782 25.656 230.71 25.488 230.566 25.344C230.446 25.2 230.29 25.128 230.098 25.128H227.434ZM252.558 21.708L247.554 36.504V45H242.514V36.504L237.51 21.708H242.262L245.034 31.428L247.806 21.708H252.558Z" fill="#227372"/>
<path d="M96.384 49.928C96.4373 49.8427 96.512 49.8 96.608 49.8H98.08C98.1333 49.8 98.176 49.8213 98.208 49.864C98.2507 49.896 98.272 49.9387 98.272 49.992V60.808C98.272 60.8613 98.2507 60.9093 98.208 60.952C98.176 60.984 98.1333 61 98.08 61H96.608C96.5547 61 96.5067 60.984 96.464 60.952C96.432 60.9093 96.416 60.8613 96.416 60.808V53.176C96.416 53.144 96.4 53.1227 96.368 53.112C96.3467 53.1013 96.3307 53.112 96.32 53.144L94.32 56.216C94.2667 56.3013 94.192 56.344 94.096 56.344H93.36C93.264 56.344 93.1893 56.3013 93.136 56.216L91.12 53.16C91.1093 53.128 91.088 53.1173 91.056 53.128C91.0347 53.1387 91.024 53.16 91.024 53.192V60.808C91.024 60.8613 91.0027 60.9093 90.96 60.952C90.928 60.984 90.8853 61 90.832 61H89.36C89.3067 61 89.2587 60.984 89.216 60.952C89.184 60.9093 89.168 60.8613 89.168 60.808V49.992C89.168 49.9387 89.184 49.896 89.216 49.864C89.2587 49.8213 89.3067 49.8 89.36 49.8H90.832C90.928 49.8 91.0027 49.8427 91.056 49.928L93.664 53.88C93.6853 53.9013 93.7067 53.912 93.728 53.912C93.7493 53.912 93.7653 53.9013 93.776 53.88L96.384 49.928ZM103.902 61.128C103.059 61.128 102.334 60.9147 101.726 60.488C101.128 60.0613 100.707 59.4693 100.462 58.712C100.28 58.136 100.19 57.528 100.19 56.888C100.19 56.2053 100.275 55.5973 100.446 55.064C100.691 54.3173 101.118 53.736 101.726 53.32C102.334 52.904 103.064 52.696 103.918 52.696C104.728 52.696 105.427 52.904 106.014 53.32C106.611 53.736 107.032 54.312 107.278 55.048C107.47 55.56 107.566 56.168 107.566 56.872C107.566 57.544 107.475 58.152 107.294 58.696C107.048 59.4533 106.627 60.0507 106.03 60.488C105.432 60.9147 104.723 61.128 103.902 61.128ZM103.902 59.528C104.296 59.528 104.632 59.416 104.91 59.192C105.198 58.968 105.406 58.6533 105.534 58.248C105.64 57.896 105.694 57.448 105.694 56.904C105.694 56.328 105.64 55.88 105.534 55.56C105.416 55.1547 105.214 54.8453 104.926 54.632C104.638 54.408 104.286 54.296 103.87 54.296C103.475 54.296 103.134 54.408 102.846 54.632C102.558 54.8453 102.35 55.1547 102.222 55.56C102.115 55.9333 102.062 56.3813 102.062 56.904C102.062 57.4267 102.115 57.8747 102.222 58.248C102.339 58.6533 102.542 58.968 102.83 59.192C103.128 59.416 103.486 59.528 103.902 59.528ZM113.24 52.696C114.104 52.696 114.792 52.952 115.304 53.464C115.827 53.976 116.088 54.6747 116.088 55.56V60.808C116.088 60.8613 116.067 60.9093 116.024 60.952C115.992 60.984 115.949 61 115.896 61H114.424C114.371 61 114.323 60.984 114.28 60.952C114.248 60.9093 114.232 60.8613 114.232 60.808V55.944C114.232 55.4533 114.093 55.0587 113.816 54.76C113.539 54.4507 113.171 54.296 112.712 54.296C112.253 54.296 111.88 54.4453 111.592 54.744C111.315 55.0427 111.176 55.4373 111.176 55.928V60.808C111.176 60.8613 111.155 60.9093 111.112 60.952C111.08 60.984 111.037 61 110.984 61H109.512C109.459 61 109.411 60.984 109.368 60.952C109.336 60.9093 109.32 60.8613 109.32 60.808V53.016C109.32 52.9627 109.336 52.92 109.368 52.888C109.411 52.8453 109.459 52.824 109.512 52.824H110.984C111.037 52.824 111.08 52.8453 111.112 52.888C111.155 52.92 111.176 52.9627 111.176 53.016V53.528C111.176 53.56 111.187 53.5813 111.208 53.592C111.229 53.6027 111.245 53.592 111.256 53.56C111.693 52.984 112.355 52.696 113.24 52.696ZM119.079 51.704C118.749 51.704 118.477 51.5973 118.263 51.384C118.05 51.1707 117.943 50.8987 117.943 50.568C117.943 50.2373 118.05 49.9653 118.263 49.752C118.477 49.5387 118.749 49.432 119.079 49.432C119.41 49.432 119.682 49.5387 119.895 49.752C120.109 49.9653 120.215 50.2373 120.215 50.568C120.215 50.8987 120.109 51.1707 119.895 51.384C119.682 51.5973 119.41 51.704 119.079 51.704ZM118.311 61C118.258 61 118.21 60.984 118.167 60.952C118.135 60.9093 118.119 60.8613 118.119 60.808V53C118.119 52.9467 118.135 52.904 118.167 52.872C118.21 52.8293 118.258 52.808 118.311 52.808H119.783C119.837 52.808 119.879 52.8293 119.911 52.872C119.954 52.904 119.975 52.9467 119.975 53V60.808C119.975 60.8613 119.954 60.9093 119.911 60.952C119.879 60.984 119.837 61 119.783 61H118.311ZM126.437 54.136C126.437 54.1893 126.416 54.2373 126.373 54.28C126.341 54.312 126.299 54.328 126.245 54.328H124.613C124.56 54.328 124.533 54.3547 124.533 54.408V58.264C124.533 58.6693 124.619 58.9627 124.789 59.144C124.971 59.3253 125.253 59.416 125.637 59.416H126.117C126.171 59.416 126.213 59.4373 126.245 59.48C126.288 59.512 126.309 59.5547 126.309 59.608V60.808C126.309 60.9253 126.245 60.9947 126.117 61.016L125.285 61.032C124.443 61.032 123.813 60.888 123.397 60.6C122.981 60.312 122.768 59.768 122.757 58.968V54.408C122.757 54.3547 122.731 54.328 122.677 54.328H121.765C121.712 54.328 121.664 54.312 121.621 54.28C121.589 54.2373 121.573 54.1893 121.573 54.136V53.016C121.573 52.9627 121.589 52.92 121.621 52.888C121.664 52.8453 121.712 52.824 121.765 52.824H122.677C122.731 52.824 122.757 52.7973 122.757 52.744V50.872C122.757 50.8187 122.773 50.776 122.805 50.744C122.848 50.7013 122.896 50.68 122.949 50.68H124.341C124.395 50.68 124.437 50.7013 124.469 50.744C124.512 50.776 124.533 50.8187 124.533 50.872V52.744C124.533 52.7973 124.56 52.824 124.613 52.824H126.245C126.299 52.824 126.341 52.8453 126.373 52.888C126.416 52.92 126.437 52.9627 126.437 53.016V54.136ZM131.402 61.128C130.559 61.128 129.834 60.9147 129.226 60.488C128.628 60.0613 128.207 59.4693 127.962 58.712C127.78 58.136 127.69 57.528 127.69 56.888C127.69 56.2053 127.775 55.5973 127.946 55.064C128.191 54.3173 128.618 53.736 129.226 53.32C129.834 52.904 130.564 52.696 131.418 52.696C132.228 52.696 132.927 52.904 133.514 53.32C134.111 53.736 134.532 54.312 134.778 55.048C134.97 55.56 135.066 56.168 135.066 56.872C135.066 57.544 134.975 58.152 134.794 58.696C134.548 59.4533 134.127 60.0507 133.53 60.488C132.932 60.9147 132.223 61.128 131.402 61.128ZM131.402 59.528C131.796 59.528 132.132 59.416 132.41 59.192C132.698 58.968 132.906 58.6533 133.034 58.248C133.14 57.896 133.194 57.448 133.194 56.904C133.194 56.328 133.14 55.88 133.034 55.56C132.916 55.1547 132.714 54.8453 132.426 54.632C132.138 54.408 131.786 54.296 131.37 54.296C130.975 54.296 130.634 54.408 130.346 54.632C130.058 54.8453 129.85 55.1547 129.722 55.56C129.615 55.9333 129.562 56.3813 129.562 56.904C129.562 57.4267 129.615 57.8747 129.722 58.248C129.839 58.6533 130.042 58.968 130.33 59.192C130.628 59.416 130.986 59.528 131.402 59.528ZM140.628 52.728C140.969 52.728 141.268 52.7973 141.524 52.936C141.609 52.9787 141.641 53.0587 141.62 53.176L141.348 54.616C141.337 54.744 141.263 54.7813 141.124 54.728C140.964 54.6747 140.777 54.648 140.564 54.648C140.425 54.648 140.319 54.6533 140.244 54.664C139.796 54.6853 139.423 54.8453 139.124 55.144C138.825 55.432 138.676 55.8107 138.676 56.28V60.808C138.676 60.8613 138.655 60.9093 138.612 60.952C138.58 60.984 138.537 61 138.484 61H137.012C136.959 61 136.911 60.984 136.868 60.952C136.836 60.9093 136.82 60.8613 136.82 60.808V53.016C136.82 52.9627 136.836 52.92 136.868 52.888C136.911 52.8453 136.959 52.824 137.012 52.824H138.484C138.537 52.824 138.58 52.8453 138.612 52.888C138.655 52.92 138.676 52.9627 138.676 53.016V53.736C138.676 53.7787 138.681 53.8053 138.692 53.816C138.713 53.816 138.735 53.8 138.756 53.768C139.204 53.0747 139.828 52.728 140.628 52.728ZM145.878 52.696C146.55 52.696 147.142 52.8133 147.654 53.048C148.166 53.2827 148.56 53.608 148.838 54.024C149.115 54.4293 149.254 54.8933 149.254 55.416V60.808C149.254 60.8613 149.232 60.9093 149.19 60.952C149.158 60.984 149.115 61 149.062 61H147.59C147.536 61 147.488 60.984 147.446 60.952C147.414 60.9093 147.398 60.8613 147.398 60.808V60.296C147.398 60.264 147.387 60.248 147.366 60.248C147.344 60.2373 147.323 60.2427 147.302 60.264C146.779 60.84 146.022 61.128 145.03 61.128C144.23 61.128 143.568 60.9253 143.046 60.52C142.534 60.1147 142.278 59.512 142.278 58.712C142.278 57.88 142.566 57.2347 143.142 56.776C143.728 56.3067 144.55 56.072 145.606 56.072H147.318C147.371 56.072 147.398 56.0453 147.398 55.992V55.608C147.398 55.192 147.275 54.872 147.03 54.648C146.784 54.4133 146.416 54.296 145.926 54.296C145.52 54.296 145.19 54.3707 144.934 54.52C144.688 54.6587 144.534 54.856 144.47 55.112C144.438 55.24 144.363 55.2933 144.246 55.272L142.694 55.08C142.64 55.0693 142.592 55.0533 142.55 55.032C142.518 55 142.507 54.9627 142.518 54.92C142.603 54.2693 142.95 53.736 143.558 53.32C144.176 52.904 144.95 52.696 145.878 52.696ZM145.494 59.656C146.016 59.656 146.464 59.5173 146.838 59.24C147.211 58.9627 147.398 58.6107 147.398 58.184V57.432C147.398 57.3787 147.371 57.352 147.318 57.352H145.974C145.408 57.352 144.96 57.4587 144.63 57.672C144.31 57.8853 144.15 58.1893 144.15 58.584C144.15 58.9253 144.272 59.192 144.518 59.384C144.774 59.5653 145.099 59.656 145.494 59.656ZM159.869 52.696C160.69 52.696 161.33 52.9467 161.789 53.448C162.258 53.9387 162.493 54.6267 162.493 55.512V60.808C162.493 60.8613 162.472 60.9093 162.429 60.952C162.397 60.984 162.354 61 162.301 61H160.845C160.792 61 160.744 60.984 160.701 60.952C160.669 60.9093 160.653 60.8613 160.653 60.808V55.896C160.653 55.4053 160.52 55.016 160.253 54.728C159.997 54.44 159.65 54.296 159.213 54.296C158.776 54.296 158.418 54.44 158.141 54.728C157.864 55.016 157.725 55.4 157.725 55.88V60.808C157.725 60.8613 157.704 60.9093 157.661 60.952C157.629 60.984 157.586 61 157.533 61H156.077C156.024 61 155.976 60.984 155.933 60.952C155.901 60.9093 155.885 60.8613 155.885 60.808V55.896C155.885 55.4053 155.752 55.016 155.485 54.728C155.218 54.44 154.866 54.296 154.429 54.296C154.024 54.296 153.688 54.4133 153.421 54.648C153.165 54.8827 153.016 55.2027 152.973 55.608V60.808C152.973 60.8613 152.952 60.9093 152.909 60.952C152.877 60.984 152.834 61 152.781 61H151.309C151.256 61 151.208 60.984 151.165 60.952C151.133 60.9093 151.117 60.8613 151.117 60.808V53.016C151.117 52.9627 151.133 52.92 151.165 52.888C151.208 52.8453 151.256 52.824 151.309 52.824H152.781C152.834 52.824 152.877 52.8453 152.909 52.888C152.952 52.92 152.973 52.9627 152.973 53.016V53.544C152.973 53.576 152.984 53.5973 153.005 53.608C153.026 53.6187 153.048 53.608 153.069 53.576C153.304 53.2773 153.592 53.0587 153.933 52.92C154.285 52.7707 154.674 52.696 155.101 52.696C155.624 52.696 156.082 52.8027 156.477 53.016C156.872 53.2293 157.176 53.5387 157.389 53.944C157.421 53.9867 157.458 53.9867 157.501 53.944C157.736 53.5173 158.061 53.2027 158.477 53C158.893 52.7973 159.357 52.696 159.869 52.696ZM171.216 55.992C171.259 56.2587 171.28 56.5573 171.28 56.888L171.264 57.384C171.264 57.512 171.2 57.576 171.072 57.576H166.064C166.011 57.576 165.984 57.6027 165.984 57.656C166.016 58.008 166.064 58.248 166.128 58.376C166.384 59.144 167.008 59.5333 168 59.544C168.725 59.544 169.301 59.2453 169.728 58.648C169.771 58.584 169.824 58.552 169.888 58.552C169.931 58.552 169.968 58.568 170 58.6L170.992 59.416C171.088 59.4907 171.104 59.576 171.04 59.672C170.709 60.1413 170.267 60.504 169.712 60.76C169.168 61.016 168.56 61.144 167.888 61.144C167.056 61.144 166.347 60.9573 165.76 60.584C165.184 60.2107 164.763 59.688 164.496 59.016C164.251 58.44 164.128 57.64 164.128 56.616C164.128 55.9973 164.192 55.496 164.32 55.112C164.533 54.3653 164.933 53.7787 165.52 53.352C166.117 52.9147 166.832 52.696 167.664 52.696C169.765 52.696 170.949 53.7947 171.216 55.992ZM167.664 54.296C167.269 54.296 166.939 54.3973 166.672 54.6C166.416 54.792 166.235 55.064 166.128 55.416C166.064 55.5973 166.021 55.832 166 56.12C165.979 56.1733 166 56.2 166.064 56.2H169.312C169.365 56.2 169.392 56.1733 169.392 56.12C169.371 55.8533 169.339 55.6507 169.296 55.512C169.2 55.128 169.008 54.8293 168.72 54.616C168.443 54.4027 168.091 54.296 167.664 54.296ZM176.896 52.696C177.76 52.696 178.448 52.952 178.96 53.464C179.483 53.976 179.744 54.6747 179.744 55.56V60.808C179.744 60.8613 179.723 60.9093 179.68 60.952C179.648 60.984 179.606 61 179.552 61H178.08C178.027 61 177.979 60.984 177.936 60.952C177.904 60.9093 177.888 60.8613 177.888 60.808V55.944C177.888 55.4533 177.75 55.0587 177.472 54.76C177.195 54.4507 176.827 54.296 176.368 54.296C175.91 54.296 175.536 54.4453 175.248 54.744C174.971 55.0427 174.832 55.4373 174.832 55.928V60.808C174.832 60.8613 174.811 60.9093 174.768 60.952C174.736 60.984 174.694 61 174.64 61H173.168C173.115 61 173.067 60.984 173.024 60.952C172.992 60.9093 172.976 60.8613 172.976 60.808V53.016C172.976 52.9627 172.992 52.92 173.024 52.888C173.067 52.8453 173.115 52.824 173.168 52.824H174.64C174.694 52.824 174.736 52.8453 174.768 52.888C174.811 52.92 174.832 52.9627 174.832 53.016V53.528C174.832 53.56 174.843 53.5813 174.864 53.592C174.886 53.6027 174.902 53.592 174.912 53.56C175.35 52.984 176.011 52.696 176.896 52.696ZM186.016 54.136C186.016 54.1893 185.994 54.2373 185.952 54.28C185.92 54.312 185.877 54.328 185.824 54.328H184.192C184.138 54.328 184.112 54.3547 184.112 54.408V58.264C184.112 58.6693 184.197 58.9627 184.368 59.144C184.549 59.3253 184.832 59.416 185.216 59.416H185.696C185.749 59.416 185.792 59.4373 185.824 59.48C185.866 59.512 185.888 59.5547 185.888 59.608V60.808C185.888 60.9253 185.824 60.9947 185.696 61.016L184.864 61.032C184.021 61.032 183.392 60.888 182.976 60.6C182.56 60.312 182.346 59.768 182.336 58.968V54.408C182.336 54.3547 182.309 54.328 182.256 54.328H181.344C181.29 54.328 181.242 54.312 181.2 54.28C181.168 54.2373 181.152 54.1893 181.152 54.136V53.016C181.152 52.9627 181.168 52.92 181.2 52.888C181.242 52.8453 181.29 52.824 181.344 52.824H182.256C182.309 52.824 182.336 52.7973 182.336 52.744V50.872C182.336 50.8187 182.352 50.776 182.384 50.744C182.426 50.7013 182.474 50.68 182.528 50.68H183.92C183.973 50.68 184.016 50.7013 184.048 50.744C184.09 50.776 184.112 50.8187 184.112 50.872V52.744C184.112 52.7973 184.138 52.824 184.192 52.824H185.824C185.877 52.824 185.92 52.8453 185.952 52.888C185.994 52.92 186.016 52.9627 186.016 53.016V54.136ZM190.98 61.128C190.137 61.128 189.412 60.9147 188.804 60.488C188.206 60.0613 187.785 59.4693 187.54 58.712C187.358 58.136 187.268 57.528 187.268 56.888C187.268 56.2053 187.353 55.5973 187.524 55.064C187.769 54.3173 188.196 53.736 188.804 53.32C189.412 52.904 190.142 52.696 190.996 52.696C191.806 52.696 192.505 52.904 193.092 53.32C193.689 53.736 194.11 54.312 194.356 55.048C194.548 55.56 194.644 56.168 194.644 56.872C194.644 57.544 194.553 58.152 194.372 58.696C194.126 59.4533 193.705 60.0507 193.108 60.488C192.51 60.9147 191.801 61.128 190.98 61.128ZM190.98 59.528C191.374 59.528 191.71 59.416 191.988 59.192C192.276 58.968 192.484 58.6533 192.612 58.248C192.718 57.896 192.772 57.448 192.772 56.904C192.772 56.328 192.718 55.88 192.612 55.56C192.494 55.1547 192.292 54.8453 192.004 54.632C191.716 54.408 191.364 54.296 190.948 54.296C190.553 54.296 190.212 54.408 189.924 54.632C189.636 54.8453 189.428 55.1547 189.3 55.56C189.193 55.9333 189.14 56.3813 189.14 56.904C189.14 57.4267 189.193 57.8747 189.3 58.248C189.417 58.6533 189.62 58.968 189.908 59.192C190.206 59.416 190.564 59.528 190.98 59.528ZM199.438 61.096C198.766 61.096 198.174 61 197.662 60.808C197.161 60.6053 196.772 60.3333 196.494 59.992C196.217 59.64 196.078 59.2507 196.078 58.824V58.68C196.078 58.6267 196.094 58.584 196.126 58.552C196.169 58.5093 196.217 58.488 196.27 58.488H197.678C197.732 58.488 197.774 58.5093 197.806 58.552C197.849 58.584 197.87 58.6267 197.87 58.68V58.712C197.87 58.9787 198.014 59.2133 198.302 59.416C198.601 59.608 198.974 59.704 199.422 59.704C199.849 59.704 200.196 59.6187 200.462 59.448C200.729 59.2667 200.862 59.0427 200.862 58.776C200.862 58.5307 200.75 58.3493 200.526 58.232C200.313 58.104 199.961 57.9707 199.47 57.832L198.862 57.64C198.318 57.48 197.86 57.3093 197.486 57.128C197.113 56.9467 196.798 56.7013 196.542 56.392C196.286 56.072 196.158 55.6667 196.158 55.176C196.158 54.4293 196.452 53.8373 197.038 53.4C197.625 52.952 198.398 52.728 199.358 52.728C200.009 52.728 200.58 52.8347 201.07 53.048C201.561 53.2507 201.94 53.5387 202.206 53.912C202.473 54.2747 202.606 54.6907 202.606 55.16C202.606 55.2133 202.585 55.2613 202.542 55.304C202.51 55.336 202.468 55.352 202.414 55.352H201.054C201.001 55.352 200.953 55.336 200.91 55.304C200.878 55.2613 200.862 55.2133 200.862 55.16C200.862 54.8827 200.724 54.6533 200.446 54.472C200.18 54.28 199.812 54.184 199.342 54.184C198.926 54.184 198.585 54.264 198.318 54.424C198.062 54.5733 197.934 54.7867 197.934 55.064C197.934 55.32 198.057 55.5173 198.302 55.656C198.558 55.784 198.98 55.928 199.566 56.088L199.918 56.184C200.484 56.3547 200.958 56.5307 201.342 56.712C201.726 56.8827 202.052 57.128 202.318 57.448C202.585 57.7573 202.718 58.1627 202.718 58.664C202.718 59.4213 202.42 60.0187 201.822 60.456C201.225 60.8827 200.43 61.096 199.438 61.096Z" fill="#23AFAE"/>
</svg>
