<svg width="166" height="53" viewBox="0 0 166 53" fill="none" xmlns="http://www.w3.org/2000/svg">
<path d="M11.052 9.708C14.028 9.708 15.516 11.292 15.516 14.46V28.248C15.516 31.416 14.028 33 11.052 33H1.8V9.708H11.052ZM10.476 28.824V13.848C10.476 13.656 10.404 13.488 10.26 13.344C10.14 13.2 9.984 13.128 9.792 13.128H6.84V29.544H9.792C9.984 29.544 10.14 29.472 10.26 29.328C10.404 29.184 10.476 29.016 10.476 28.824ZM28.5247 9.348C31.5007 9.348 32.9887 10.932 32.9887 14.1V33H27.9487V25.188H24.3127V33H19.2727V14.1C19.2727 10.932 20.7607 9.348 23.7367 9.348H28.5247ZM24.3127 21.3H27.9487V13.488C27.9487 13.296 27.8767 13.128 27.7327 12.984C27.6127 12.84 27.4567 12.768 27.2647 12.768H24.9967C24.8047 12.768 24.6367 12.84 24.4927 12.984C24.3727 13.128 24.3127 13.296 24.3127 13.488V21.3ZM35.4133 13.992V9.708H48.0133V13.992H44.2333V33H39.1933V13.992H35.4133ZM59.5676 9.348C62.5436 9.348 64.0316 10.932 64.0316 14.1V33H58.9916V25.188H55.3556V33H50.3156V14.1C50.3156 10.932 51.8036 9.348 54.7796 9.348H59.5676ZM55.3556 21.3H58.9916V13.488C58.9916 13.296 58.9196 13.128 58.7756 12.984C58.6556 12.84 58.4996 12.768 58.3076 12.768H56.0396C55.8476 12.768 55.6796 12.84 55.5356 12.984C55.4156 13.128 55.3556 13.296 55.3556 13.488V21.3ZM83.7416 29.184V25.584H88.5296V28.608C88.5296 31.776 87.0416 33.36 84.0656 33.36H79.5296C76.5536 33.36 75.0656 31.776 75.0656 28.608V14.1C75.0656 10.932 76.5536 9.348 79.5296 9.348H84.0656C87.0416 9.348 88.5296 10.932 88.5296 14.1V16.296H83.7416V13.488C83.7416 13.296 83.6696 13.128 83.5256 12.984C83.4056 12.84 83.2496 12.768 83.0576 12.768H80.7896C80.5976 12.768 80.4296 12.84 80.2856 12.984C80.1656 13.128 80.1056 13.296 80.1056 13.488V29.184C80.1056 29.376 80.1656 29.544 80.2856 29.688C80.4296 29.832 80.5976 29.904 80.7896 29.904H83.0576C83.2496 29.904 83.4056 29.832 83.5256 29.688C83.6696 29.544 83.7416 29.376 83.7416 29.184ZM96.5939 28.824H102.174V33H91.5539V9.708H102.174V13.812H96.5939V19.284H101.814V23.244H96.5939V28.824ZM118.445 33H113.405V13.668C113.405 13.476 113.333 13.308 113.189 13.164C113.069 13.02 112.913 12.948 112.721 12.948H110.777C110.585 12.948 110.417 13.02 110.273 13.164C110.153 13.308 110.093 13.476 110.093 13.668V33H105.053V14.1C105.053 10.932 106.541 9.348 109.517 9.348H113.981C116.957 9.348 118.445 10.932 118.445 14.1V33ZM120.491 13.992V9.708H133.091V13.992H129.311V33H124.271V13.992H120.491ZM140.434 23.46V33H135.394V9.708H144.358C147.334 9.708 148.822 11.292 148.822 14.46V17.16C148.822 19.08 148.138 20.304 146.77 20.832C147.97 21.264 148.57 22.248 148.57 23.784V33H143.53V24.18C143.53 23.7 143.302 23.46 142.846 23.46H140.434ZM140.434 13.128V19.932H143.098C143.29 19.932 143.446 19.86 143.566 19.716C143.71 19.572 143.782 19.404 143.782 19.212V13.848C143.782 13.656 143.71 13.488 143.566 13.344C143.446 13.2 143.29 13.128 143.098 13.128H140.434ZM165.558 9.708L160.554 24.504V33H155.514V24.504L150.51 9.708H155.262L158.034 19.428L160.806 9.708H165.558Z" fill="#227372"/>
<path d="M9.384 37.928C9.43733 37.8427 9.512 37.8 9.608 37.8H11.08C11.1333 37.8 11.176 37.8213 11.208 37.864C11.2507 37.896 11.272 37.9387 11.272 37.992V48.808C11.272 48.8613 11.2507 48.9093 11.208 48.952C11.176 48.984 11.1333 49 11.08 49H9.608C9.55467 49 9.50667 48.984 9.464 48.952C9.432 48.9093 9.416 48.8613 9.416 48.808V41.176C9.416 41.144 9.4 41.1227 9.368 41.112C9.34667 41.1013 9.33067 41.112 9.32 41.144L7.32 44.216C7.26667 44.3013 7.192 44.344 7.096 44.344H6.36C6.264 44.344 6.18933 44.3013 6.136 44.216L4.12 41.16C4.10933 41.128 4.088 41.1173 4.056 41.128C4.03467 41.1387 4.024 41.16 4.024 41.192V48.808C4.024 48.8613 4.00267 48.9093 3.96 48.952C3.928 48.984 3.88533 49 3.832 49H2.36C2.30667 49 2.25867 48.984 2.216 48.952C2.184 48.9093 2.168 48.8613 2.168 48.808V37.992C2.168 37.9387 2.184 37.896 2.216 37.864C2.25867 37.8213 2.30667 37.8 2.36 37.8H3.832C3.928 37.8 4.00267 37.8427 4.056 37.928L6.664 41.88C6.68533 41.9013 6.70667 41.912 6.728 41.912C6.74933 41.912 6.76533 41.9013 6.776 41.88L9.384 37.928ZM16.9015 49.128C16.0588 49.128 15.3335 48.9147 14.7255 48.488C14.1282 48.0613 13.7068 47.4693 13.4615 46.712C13.2802 46.136 13.1895 45.528 13.1895 44.888C13.1895 44.2053 13.2748 43.5973 13.4455 43.064C13.6908 42.3173 14.1175 41.736 14.7255 41.32C15.3335 40.904 16.0642 40.696 16.9175 40.696C17.7282 40.696 18.4268 40.904 19.0135 41.32C19.6108 41.736 20.0322 42.312 20.2775 43.048C20.4695 43.56 20.5655 44.168 20.5655 44.872C20.5655 45.544 20.4748 46.152 20.2935 46.696C20.0482 47.4533 19.6268 48.0507 19.0295 48.488C18.4322 48.9147 17.7228 49.128 16.9015 49.128ZM16.9015 47.528C17.2962 47.528 17.6322 47.416 17.9095 47.192C18.1975 46.968 18.4055 46.6533 18.5335 46.248C18.6402 45.896 18.6935 45.448 18.6935 44.904C18.6935 44.328 18.6402 43.88 18.5335 43.56C18.4162 43.1547 18.2135 42.8453 17.9255 42.632C17.6375 42.408 17.2855 42.296 16.8695 42.296C16.4748 42.296 16.1335 42.408 15.8455 42.632C15.5575 42.8453 15.3495 43.1547 15.2215 43.56C15.1148 43.9333 15.0615 44.3813 15.0615 44.904C15.0615 45.4267 15.1148 45.8747 15.2215 46.248C15.3388 46.6533 15.5415 46.968 15.8295 47.192C16.1282 47.416 16.4855 47.528 16.9015 47.528ZM26.2401 40.696C27.1041 40.696 27.7921 40.952 28.3041 41.464C28.8268 41.976 29.0881 42.6747 29.0881 43.56V48.808C29.0881 48.8613 29.0668 48.9093 29.0241 48.952C28.9921 48.984 28.9495 49 28.8961 49H27.4241C27.3708 49 27.3228 48.984 27.2801 48.952C27.2481 48.9093 27.2321 48.8613 27.2321 48.808V43.944C27.2321 43.4533 27.0935 43.0587 26.8161 42.76C26.5388 42.4507 26.1708 42.296 25.7121 42.296C25.2535 42.296 24.8801 42.4453 24.5921 42.744C24.3148 43.0427 24.1761 43.4373 24.1761 43.928V48.808C24.1761 48.8613 24.1548 48.9093 24.1121 48.952C24.0801 48.984 24.0375 49 23.9841 49H22.5121C22.4588 49 22.4108 48.984 22.3681 48.952C22.3361 48.9093 22.3201 48.8613 22.3201 48.808V41.016C22.3201 40.9627 22.3361 40.92 22.3681 40.888C22.4108 40.8453 22.4588 40.824 22.5121 40.824H23.9841C24.0375 40.824 24.0801 40.8453 24.1121 40.888C24.1548 40.92 24.1761 40.9627 24.1761 41.016V41.528C24.1761 41.56 24.1868 41.5813 24.2081 41.592C24.2295 41.6027 24.2455 41.592 24.2561 41.56C24.6935 40.984 25.3548 40.696 26.2401 40.696ZM32.0793 39.704C31.7486 39.704 31.4766 39.5973 31.2633 39.384C31.0499 39.1707 30.9433 38.8987 30.9433 38.568C30.9433 38.2373 31.0499 37.9653 31.2633 37.752C31.4766 37.5387 31.7486 37.432 32.0793 37.432C32.4099 37.432 32.6819 37.5387 32.8953 37.752C33.1086 37.9653 33.2153 38.2373 33.2153 38.568C33.2153 38.8987 33.1086 39.1707 32.8953 39.384C32.6819 39.5973 32.4099 39.704 32.0793 39.704ZM31.3113 49C31.2579 49 31.2099 48.984 31.1673 48.952C31.1353 48.9093 31.1193 48.8613 31.1193 48.808V41C31.1193 40.9467 31.1353 40.904 31.1673 40.872C31.2099 40.8293 31.2579 40.808 31.3113 40.808H32.7833C32.8366 40.808 32.8793 40.8293 32.9113 40.872C32.9539 40.904 32.9753 40.9467 32.9753 41V48.808C32.9753 48.8613 32.9539 48.9093 32.9113 48.952C32.8793 48.984 32.8366 49 32.7833 49H31.3113ZM39.4374 42.136C39.4374 42.1893 39.416 42.2373 39.3734 42.28C39.3414 42.312 39.2987 42.328 39.2454 42.328H37.6134C37.56 42.328 37.5334 42.3547 37.5334 42.408V46.264C37.5334 46.6693 37.6187 46.9627 37.7894 47.144C37.9707 47.3253 38.2534 47.416 38.6374 47.416H39.1174C39.1707 47.416 39.2134 47.4373 39.2454 47.48C39.288 47.512 39.3094 47.5547 39.3094 47.608V48.808C39.3094 48.9253 39.2454 48.9947 39.1174 49.016L38.2854 49.032C37.4427 49.032 36.8134 48.888 36.3974 48.6C35.9814 48.312 35.768 47.768 35.7574 46.968V42.408C35.7574 42.3547 35.7307 42.328 35.6774 42.328H34.7654C34.712 42.328 34.664 42.312 34.6214 42.28C34.5894 42.2373 34.5734 42.1893 34.5734 42.136V41.016C34.5734 40.9627 34.5894 40.92 34.6214 40.888C34.664 40.8453 34.712 40.824 34.7654 40.824H35.6774C35.7307 40.824 35.7574 40.7973 35.7574 40.744V38.872C35.7574 38.8187 35.7734 38.776 35.8054 38.744C35.848 38.7013 35.896 38.68 35.9494 38.68H37.3414C37.3947 38.68 37.4374 38.7013 37.4694 38.744C37.512 38.776 37.5334 38.8187 37.5334 38.872V40.744C37.5334 40.7973 37.56 40.824 37.6134 40.824H39.2454C39.2987 40.824 39.3414 40.8453 39.3734 40.888C39.416 40.92 39.4374 40.9627 39.4374 41.016V42.136ZM44.4015 49.128C43.5588 49.128 42.8335 48.9147 42.2255 48.488C41.6282 48.0613 41.2068 47.4693 40.9615 46.712C40.7802 46.136 40.6895 45.528 40.6895 44.888C40.6895 44.2053 40.7748 43.5973 40.9455 43.064C41.1908 42.3173 41.6175 41.736 42.2255 41.32C42.8335 40.904 43.5642 40.696 44.4175 40.696C45.2282 40.696 45.9268 40.904 46.5135 41.32C47.1108 41.736 47.5322 42.312 47.7775 43.048C47.9695 43.56 48.0655 44.168 48.0655 44.872C48.0655 45.544 47.9748 46.152 47.7935 46.696C47.5482 47.4533 47.1268 48.0507 46.5295 48.488C45.9322 48.9147 45.2228 49.128 44.4015 49.128ZM44.4015 47.528C44.7962 47.528 45.1322 47.416 45.4095 47.192C45.6975 46.968 45.9055 46.6533 46.0335 46.248C46.1402 45.896 46.1935 45.448 46.1935 44.904C46.1935 44.328 46.1402 43.88 46.0335 43.56C45.9162 43.1547 45.7135 42.8453 45.4255 42.632C45.1375 42.408 44.7855 42.296 44.3695 42.296C43.9748 42.296 43.6335 42.408 43.3455 42.632C43.0575 42.8453 42.8495 43.1547 42.7215 43.56C42.6148 43.9333 42.5615 44.3813 42.5615 44.904C42.5615 45.4267 42.6148 45.8747 42.7215 46.248C42.8388 46.6533 43.0415 46.968 43.3295 47.192C43.6282 47.416 43.9855 47.528 44.4015 47.528ZM53.6281 40.728C53.9695 40.728 54.2681 40.7973 54.5241 40.936C54.6095 40.9787 54.6415 41.0587 54.6201 41.176L54.3481 42.616C54.3375 42.744 54.2628 42.7813 54.1241 42.728C53.9641 42.6747 53.7775 42.648 53.5641 42.648C53.4255 42.648 53.3188 42.6533 53.2441 42.664C52.7961 42.6853 52.4228 42.8453 52.1241 43.144C51.8255 43.432 51.6761 43.8107 51.6761 44.28V48.808C51.6761 48.8613 51.6548 48.9093 51.6121 48.952C51.5801 48.984 51.5375 49 51.4841 49H50.0121C49.9588 49 49.9108 48.984 49.8681 48.952C49.8361 48.9093 49.8201 48.8613 49.8201 48.808V41.016C49.8201 40.9627 49.8361 40.92 49.8681 40.888C49.9108 40.8453 49.9588 40.824 50.0121 40.824H51.4841C51.5375 40.824 51.5801 40.8453 51.6121 40.888C51.6548 40.92 51.6761 40.9627 51.6761 41.016V41.736C51.6761 41.7787 51.6815 41.8053 51.6921 41.816C51.7135 41.816 51.7348 41.8 51.7561 41.768C52.2041 41.0747 52.8281 40.728 53.6281 40.728ZM58.8776 40.696C59.5496 40.696 60.1416 40.8133 60.6536 41.048C61.1656 41.2827 61.5603 41.608 61.8376 42.024C62.115 42.4293 62.2536 42.8933 62.2536 43.416V48.808C62.2536 48.8613 62.2323 48.9093 62.1896 48.952C62.1576 48.984 62.115 49 62.0616 49H60.5896C60.5363 49 60.4883 48.984 60.4456 48.952C60.4136 48.9093 60.3976 48.8613 60.3976 48.808V48.296C60.3976 48.264 60.387 48.248 60.3656 48.248C60.3443 48.2373 60.323 48.2427 60.3016 48.264C59.779 48.84 59.0216 49.128 58.0296 49.128C57.2296 49.128 56.5683 48.9253 56.0456 48.52C55.5336 48.1147 55.2776 47.512 55.2776 46.712C55.2776 45.88 55.5656 45.2347 56.1416 44.776C56.7283 44.3067 57.5496 44.072 58.6056 44.072H60.3176C60.371 44.072 60.3976 44.0453 60.3976 43.992V43.608C60.3976 43.192 60.275 42.872 60.0296 42.648C59.7843 42.4133 59.4163 42.296 58.9256 42.296C58.5203 42.296 58.1896 42.3707 57.9336 42.52C57.6883 42.6587 57.5336 42.856 57.4696 43.112C57.4376 43.24 57.363 43.2933 57.2456 43.272L55.6936 43.08C55.6403 43.0693 55.5923 43.0533 55.5496 43.032C55.5176 43 55.507 42.9627 55.5176 42.92C55.603 42.2693 55.9496 41.736 56.5576 41.32C57.1763 40.904 57.9496 40.696 58.8776 40.696ZM58.4936 47.656C59.0163 47.656 59.4643 47.5173 59.8376 47.24C60.211 46.9627 60.3976 46.6107 60.3976 46.184V45.432C60.3976 45.3787 60.371 45.352 60.3176 45.352H58.9736C58.4083 45.352 57.9603 45.4587 57.6296 45.672C57.3096 45.8853 57.1496 46.1893 57.1496 46.584C57.1496 46.9253 57.2723 47.192 57.5176 47.384C57.7736 47.5653 58.099 47.656 58.4936 47.656ZM72.869 40.696C73.6903 40.696 74.3303 40.9467 74.789 41.448C75.2583 41.9387 75.493 42.6267 75.493 43.512V48.808C75.493 48.8613 75.4717 48.9093 75.429 48.952C75.397 48.984 75.3543 49 75.301 49H73.845C73.7917 49 73.7437 48.984 73.701 48.952C73.669 48.9093 73.653 48.8613 73.653 48.808V43.896C73.653 43.4053 73.5197 43.016 73.253 42.728C72.997 42.44 72.6503 42.296 72.213 42.296C71.7757 42.296 71.4183 42.44 71.141 42.728C70.8637 43.016 70.725 43.4 70.725 43.88V48.808C70.725 48.8613 70.7037 48.9093 70.661 48.952C70.629 48.984 70.5863 49 70.533 49H69.077C69.0237 49 68.9757 48.984 68.933 48.952C68.901 48.9093 68.885 48.8613 68.885 48.808V43.896C68.885 43.4053 68.7517 43.016 68.485 42.728C68.2183 42.44 67.8663 42.296 67.429 42.296C67.0237 42.296 66.6877 42.4133 66.421 42.648C66.165 42.8827 66.0157 43.2027 65.973 43.608V48.808C65.973 48.8613 65.9517 48.9093 65.909 48.952C65.877 48.984 65.8343 49 65.781 49H64.309C64.2557 49 64.2077 48.984 64.165 48.952C64.133 48.9093 64.117 48.8613 64.117 48.808V41.016C64.117 40.9627 64.133 40.92 64.165 40.888C64.2077 40.8453 64.2557 40.824 64.309 40.824H65.781C65.8343 40.824 65.877 40.8453 65.909 40.888C65.9517 40.92 65.973 40.9627 65.973 41.016V41.544C65.973 41.576 65.9837 41.5973 66.005 41.608C66.0263 41.6187 66.0477 41.608 66.069 41.576C66.3037 41.2773 66.5917 41.0587 66.933 40.92C67.285 40.7707 67.6743 40.696 68.101 40.696C68.6237 40.696 69.0823 40.8027 69.477 41.016C69.8717 41.2293 70.1757 41.5387 70.389 41.944C70.421 41.9867 70.4583 41.9867 70.501 41.944C70.7357 41.5173 71.061 41.2027 71.477 41C71.893 40.7973 72.357 40.696 72.869 40.696ZM84.2161 43.992C84.2588 44.2587 84.2801 44.5573 84.2801 44.888L84.2641 45.384C84.2641 45.512 84.2001 45.576 84.0721 45.576H79.0641C79.0108 45.576 78.9841 45.6027 78.9841 45.656C79.0161 46.008 79.0641 46.248 79.1281 46.376C79.3841 47.144 80.0081 47.5333 81.0001 47.544C81.7255 47.544 82.3015 47.2453 82.7281 46.648C82.7708 46.584 82.8241 46.552 82.8881 46.552C82.9308 46.552 82.9681 46.568 83.0001 46.6L83.9921 47.416C84.0881 47.4907 84.1041 47.576 84.0401 47.672C83.7095 48.1413 83.2668 48.504 82.7121 48.76C82.1681 49.016 81.5601 49.144 80.8881 49.144C80.0561 49.144 79.3468 48.9573 78.7601 48.584C78.1841 48.2107 77.7628 47.688 77.4961 47.016C77.2508 46.44 77.1281 45.64 77.1281 44.616C77.1281 43.9973 77.1921 43.496 77.3201 43.112C77.5335 42.3653 77.9335 41.7787 78.5201 41.352C79.1175 40.9147 79.8321 40.696 80.6641 40.696C82.7655 40.696 83.9495 41.7947 84.2161 43.992ZM80.6641 42.296C80.2695 42.296 79.9388 42.3973 79.6721 42.6C79.4161 42.792 79.2348 43.064 79.1281 43.416C79.0641 43.5973 79.0215 43.832 79.0001 44.12C78.9788 44.1733 79.0001 44.2 79.0641 44.2H82.3121C82.3655 44.2 82.3921 44.1733 82.3921 44.12C82.3708 43.8533 82.3388 43.6507 82.2961 43.512C82.2001 43.128 82.0081 42.8293 81.7201 42.616C81.4428 42.4027 81.0908 42.296 80.6641 42.296ZM89.8964 40.696C90.7604 40.696 91.4484 40.952 91.9604 41.464C92.483 41.976 92.7444 42.6747 92.7444 43.56V48.808C92.7444 48.8613 92.723 48.9093 92.6804 48.952C92.6484 48.984 92.6057 49 92.5524 49H91.0804C91.027 49 90.979 48.984 90.9364 48.952C90.9044 48.9093 90.8884 48.8613 90.8884 48.808V43.944C90.8884 43.4533 90.7497 43.0587 90.4724 42.76C90.195 42.4507 89.827 42.296 89.3684 42.296C88.9097 42.296 88.5364 42.4453 88.2484 42.744C87.971 43.0427 87.8324 43.4373 87.8324 43.928V48.808C87.8324 48.8613 87.811 48.9093 87.7684 48.952C87.7364 48.984 87.6937 49 87.6404 49H86.1684C86.115 49 86.067 48.984 86.0244 48.952C85.9924 48.9093 85.9764 48.8613 85.9764 48.808V41.016C85.9764 40.9627 85.9924 40.92 86.0244 40.888C86.067 40.8453 86.115 40.824 86.1684 40.824H87.6404C87.6937 40.824 87.7364 40.8453 87.7684 40.888C87.811 40.92 87.8324 40.9627 87.8324 41.016V41.528C87.8324 41.56 87.843 41.5813 87.8644 41.592C87.8857 41.6027 87.9017 41.592 87.9124 41.56C88.3497 40.984 89.011 40.696 89.8964 40.696ZM99.0155 42.136C99.0155 42.1893 98.9942 42.2373 98.9515 42.28C98.9195 42.312 98.8768 42.328 98.8235 42.328H97.1915C97.1382 42.328 97.1115 42.3547 97.1115 42.408V46.264C97.1115 46.6693 97.1968 46.9627 97.3675 47.144C97.5488 47.3253 97.8315 47.416 98.2155 47.416H98.6955C98.7488 47.416 98.7915 47.4373 98.8235 47.48C98.8662 47.512 98.8875 47.5547 98.8875 47.608V48.808C98.8875 48.9253 98.8235 48.9947 98.6955 49.016L97.8635 49.032C97.0208 49.032 96.3915 48.888 95.9755 48.6C95.5595 48.312 95.3462 47.768 95.3355 46.968V42.408C95.3355 42.3547 95.3088 42.328 95.2555 42.328H94.3435C94.2902 42.328 94.2422 42.312 94.1995 42.28C94.1675 42.2373 94.1515 42.1893 94.1515 42.136V41.016C94.1515 40.9627 94.1675 40.92 94.1995 40.888C94.2422 40.8453 94.2902 40.824 94.3435 40.824H95.2555C95.3088 40.824 95.3355 40.7973 95.3355 40.744V38.872C95.3355 38.8187 95.3515 38.776 95.3835 38.744C95.4262 38.7013 95.4742 38.68 95.5275 38.68H96.9195C96.9728 38.68 97.0155 38.7013 97.0475 38.744C97.0902 38.776 97.1115 38.8187 97.1115 38.872V40.744C97.1115 40.7973 97.1382 40.824 97.1915 40.824H98.8235C98.8768 40.824 98.9195 40.8453 98.9515 40.888C98.9942 40.92 99.0155 40.9627 99.0155 41.016V42.136ZM103.98 49.128C103.137 49.128 102.412 48.9147 101.804 48.488C101.206 48.0613 100.785 47.4693 100.54 46.712C100.358 46.136 100.268 45.528 100.268 44.888C100.268 44.2053 100.353 43.5973 100.524 43.064C100.769 42.3173 101.196 41.736 101.804 41.32C102.412 40.904 103.142 40.696 103.996 40.696C104.806 40.696 105.505 40.904 106.092 41.32C106.689 41.736 107.11 42.312 107.356 43.048C107.548 43.56 107.644 44.168 107.644 44.872C107.644 45.544 107.553 46.152 107.372 46.696C107.126 47.4533 106.705 48.0507 106.108 48.488C105.51 48.9147 104.801 49.128 103.98 49.128ZM103.98 47.528C104.374 47.528 104.71 47.416 104.988 47.192C105.276 46.968 105.484 46.6533 105.612 46.248C105.718 45.896 105.772 45.448 105.772 44.904C105.772 44.328 105.718 43.88 105.612 43.56C105.494 43.1547 105.292 42.8453 105.004 42.632C104.716 42.408 104.364 42.296 103.948 42.296C103.553 42.296 103.212 42.408 102.924 42.632C102.636 42.8453 102.428 43.1547 102.3 43.56C102.193 43.9333 102.14 44.3813 102.14 44.904C102.14 45.4267 102.193 45.8747 102.3 46.248C102.417 46.6533 102.62 46.968 102.908 47.192C103.206 47.416 103.564 47.528 103.98 47.528ZM112.438 49.096C111.766 49.096 111.174 49 110.662 48.808C110.161 48.6053 109.772 48.3333 109.494 47.992C109.217 47.64 109.078 47.2507 109.078 46.824V46.68C109.078 46.6267 109.094 46.584 109.126 46.552C109.169 46.5093 109.217 46.488 109.27 46.488H110.678C110.732 46.488 110.774 46.5093 110.806 46.552C110.849 46.584 110.87 46.6267 110.87 46.68V46.712C110.87 46.9787 111.014 47.2133 111.302 47.416C111.601 47.608 111.974 47.704 112.422 47.704C112.849 47.704 113.196 47.6187 113.462 47.448C113.729 47.2667 113.862 47.0427 113.862 46.776C113.862 46.5307 113.75 46.3493 113.526 46.232C113.313 46.104 112.961 45.9707 112.47 45.832L111.862 45.64C111.318 45.48 110.86 45.3093 110.486 45.128C110.113 44.9467 109.798 44.7013 109.542 44.392C109.286 44.072 109.158 43.6667 109.158 43.176C109.158 42.4293 109.452 41.8373 110.038 41.4C110.625 40.952 111.398 40.728 112.358 40.728C113.009 40.728 113.58 40.8347 114.07 41.048C114.561 41.2507 114.94 41.5387 115.206 41.912C115.473 42.2747 115.606 42.6907 115.606 43.16C115.606 43.2133 115.585 43.2613 115.542 43.304C115.51 43.336 115.468 43.352 115.414 43.352H114.054C114.001 43.352 113.953 43.336 113.91 43.304C113.878 43.2613 113.862 43.2133 113.862 43.16C113.862 42.8827 113.724 42.6533 113.446 42.472C113.18 42.28 112.812 42.184 112.342 42.184C111.926 42.184 111.585 42.264 111.318 42.424C111.062 42.5733 110.934 42.7867 110.934 43.064C110.934 43.32 111.057 43.5173 111.302 43.656C111.558 43.784 111.98 43.928 112.566 44.088L112.918 44.184C113.484 44.3547 113.958 44.5307 114.342 44.712C114.726 44.8827 115.052 45.128 115.318 45.448C115.585 45.7573 115.718 46.1627 115.718 46.664C115.718 47.4213 115.42 48.0187 114.822 48.456C114.225 48.8827 113.43 49.096 112.438 49.096Z" fill="#23AFAE"/>
</svg>
