<svg width="166" height="56" viewBox="0 0 166 56" fill="none" xmlns="http://www.w3.org/2000/svg">
<path d="M11.052 9.708C14.028 9.708 15.516 11.292 15.516 14.46V28.248C15.516 31.416 14.028 33 11.052 33H1.8V9.708H11.052ZM10.476 28.824V13.848C10.476 13.656 10.404 13.488 10.26 13.344C10.14 13.2 9.984 13.128 9.792 13.128H6.84V29.544H9.792C9.984 29.544 10.14 29.472 10.26 29.328C10.404 29.184 10.476 29.016 10.476 28.824ZM28.5247 9.348C31.5007 9.348 32.9887 10.932 32.9887 14.1V33H27.9487V25.188H24.3127V33H19.2727V14.1C19.2727 10.932 20.7607 9.348 23.7367 9.348H28.5247ZM24.3127 21.3H27.9487V13.488C27.9487 13.296 27.8767 13.128 27.7327 12.984C27.6127 12.84 27.4567 12.768 27.2647 12.768H24.9967C24.8047 12.768 24.6367 12.84 24.4927 12.984C24.3727 13.128 24.3127 13.296 24.3127 13.488V21.3ZM35.4133 13.992V9.708H48.0133V13.992H44.2333V33H39.1933V13.992H35.4133ZM59.5676 9.348C62.5436 9.348 64.0316 10.932 64.0316 14.1V33H58.9916V25.188H55.3556V33H50.3156V14.1C50.3156 10.932 51.8036 9.348 54.7796 9.348H59.5676ZM55.3556 21.3H58.9916V13.488C58.9916 13.296 58.9196 13.128 58.7756 12.984C58.6556 12.84 58.4996 12.768 58.3076 12.768H56.0396C55.8476 12.768 55.6796 12.84 55.5356 12.984C55.4156 13.128 55.3556 13.296 55.3556 13.488V21.3ZM83.7416 29.184V25.584H88.5296V28.608C88.5296 31.776 87.0416 33.36 84.0656 33.36H79.5296C76.5536 33.36 75.0656 31.776 75.0656 28.608V14.1C75.0656 10.932 76.5536 9.348 79.5296 9.348H84.0656C87.0416 9.348 88.5296 10.932 88.5296 14.1V16.296H83.7416V13.488C83.7416 13.296 83.6696 13.128 83.5256 12.984C83.4056 12.84 83.2496 12.768 83.0576 12.768H80.7896C80.5976 12.768 80.4296 12.84 80.2856 12.984C80.1656 13.128 80.1056 13.296 80.1056 13.488V29.184C80.1056 29.376 80.1656 29.544 80.2856 29.688C80.4296 29.832 80.5976 29.904 80.7896 29.904H83.0576C83.2496 29.904 83.4056 29.832 83.5256 29.688C83.6696 29.544 83.7416 29.376 83.7416 29.184ZM96.5939 28.824H102.174V33H91.5539V9.708H102.174V13.812H96.5939V19.284H101.814V23.244H96.5939V28.824ZM118.445 33H113.405V13.668C113.405 13.476 113.333 13.308 113.189 13.164C113.069 13.02 112.913 12.948 112.721 12.948H110.777C110.585 12.948 110.417 13.02 110.273 13.164C110.153 13.308 110.093 13.476 110.093 13.668V33H105.053V14.1C105.053 10.932 106.541 9.348 109.517 9.348H113.981C116.957 9.348 118.445 10.932 118.445 14.1V33ZM120.491 13.992V9.708H133.091V13.992H129.311V33H124.271V13.992H120.491ZM140.434 23.46V33H135.394V9.708H144.358C147.334 9.708 148.822 11.292 148.822 14.46V17.16C148.822 19.08 148.138 20.304 146.77 20.832C147.97 21.264 148.57 22.248 148.57 23.784V33H143.53V24.18C143.53 23.7 143.302 23.46 142.846 23.46H140.434ZM140.434 13.128V19.932H143.098C143.29 19.932 143.446 19.86 143.566 19.716C143.71 19.572 143.782 19.404 143.782 19.212V13.848C143.782 13.656 143.71 13.488 143.566 13.344C143.446 13.2 143.29 13.128 143.098 13.128H140.434ZM165.558 9.708L160.554 24.504V33H155.514V24.504L150.51 9.708H155.262L158.034 19.428L160.806 9.708H165.558Z" fill="#227372"/>
<path d="M33.384 40.928C33.4373 40.8427 33.512 40.8 33.608 40.8H35.08C35.1333 40.8 35.176 40.8213 35.208 40.864C35.2507 40.896 35.272 40.9387 35.272 40.992V51.808C35.272 51.8613 35.2507 51.9093 35.208 51.952C35.176 51.984 35.1333 52 35.08 52H33.608C33.5547 52 33.5067 51.984 33.464 51.952C33.432 51.9093 33.416 51.8613 33.416 51.808V44.176C33.416 44.144 33.4 44.1227 33.368 44.112C33.3467 44.1013 33.3307 44.112 33.32 44.144L31.32 47.216C31.2667 47.3013 31.192 47.344 31.096 47.344H30.36C30.264 47.344 30.1893 47.3013 30.136 47.216L28.12 44.16C28.1093 44.128 28.088 44.1173 28.056 44.128C28.0347 44.1387 28.024 44.16 28.024 44.192V51.808C28.024 51.8613 28.0027 51.9093 27.96 51.952C27.928 51.984 27.8853 52 27.832 52H26.36C26.3067 52 26.2587 51.984 26.216 51.952C26.184 51.9093 26.168 51.8613 26.168 51.808V40.992C26.168 40.9387 26.184 40.896 26.216 40.864C26.2587 40.8213 26.3067 40.8 26.36 40.8H27.832C27.928 40.8 28.0027 40.8427 28.056 40.928L30.664 44.88C30.6853 44.9013 30.7067 44.912 30.728 44.912C30.7493 44.912 30.7653 44.9013 30.776 44.88L33.384 40.928ZM40.9015 52.128C40.0588 52.128 39.3335 51.9147 38.7255 51.488C38.1282 51.0613 37.7068 50.4693 37.4615 49.712C37.2802 49.136 37.1895 48.528 37.1895 47.888C37.1895 47.2053 37.2748 46.5973 37.4455 46.064C37.6908 45.3173 38.1175 44.736 38.7255 44.32C39.3335 43.904 40.0642 43.696 40.9175 43.696C41.7282 43.696 42.4268 43.904 43.0135 44.32C43.6108 44.736 44.0322 45.312 44.2775 46.048C44.4695 46.56 44.5655 47.168 44.5655 47.872C44.5655 48.544 44.4748 49.152 44.2935 49.696C44.0482 50.4533 43.6268 51.0507 43.0295 51.488C42.4322 51.9147 41.7228 52.128 40.9015 52.128ZM40.9015 50.528C41.2962 50.528 41.6322 50.416 41.9095 50.192C42.1975 49.968 42.4055 49.6533 42.5335 49.248C42.6402 48.896 42.6935 48.448 42.6935 47.904C42.6935 47.328 42.6402 46.88 42.5335 46.56C42.4162 46.1547 42.2135 45.8453 41.9255 45.632C41.6375 45.408 41.2855 45.296 40.8695 45.296C40.4748 45.296 40.1335 45.408 39.8455 45.632C39.5575 45.8453 39.3495 46.1547 39.2215 46.56C39.1148 46.9333 39.0615 47.3813 39.0615 47.904C39.0615 48.4267 39.1148 48.8747 39.2215 49.248C39.3388 49.6533 39.5415 49.968 39.8295 50.192C40.1282 50.416 40.4855 50.528 40.9015 50.528ZM50.2401 43.696C51.1041 43.696 51.7921 43.952 52.3041 44.464C52.8268 44.976 53.0881 45.6747 53.0881 46.56V51.808C53.0881 51.8613 53.0668 51.9093 53.0241 51.952C52.9921 51.984 52.9495 52 52.8961 52H51.4241C51.3708 52 51.3228 51.984 51.2801 51.952C51.2481 51.9093 51.2321 51.8613 51.2321 51.808V46.944C51.2321 46.4533 51.0935 46.0587 50.8161 45.76C50.5388 45.4507 50.1708 45.296 49.7121 45.296C49.2535 45.296 48.8801 45.4453 48.5921 45.744C48.3148 46.0427 48.1761 46.4373 48.1761 46.928V51.808C48.1761 51.8613 48.1548 51.9093 48.1121 51.952C48.0801 51.984 48.0375 52 47.9841 52H46.5121C46.4588 52 46.4108 51.984 46.3681 51.952C46.3361 51.9093 46.3201 51.8613 46.3201 51.808V44.016C46.3201 43.9627 46.3361 43.92 46.3681 43.888C46.4108 43.8453 46.4588 43.824 46.5121 43.824H47.9841C48.0375 43.824 48.0801 43.8453 48.1121 43.888C48.1548 43.92 48.1761 43.9627 48.1761 44.016V44.528C48.1761 44.56 48.1868 44.5813 48.2081 44.592C48.2295 44.6027 48.2455 44.592 48.2561 44.56C48.6935 43.984 49.3548 43.696 50.2401 43.696ZM56.0793 42.704C55.7486 42.704 55.4766 42.5973 55.2633 42.384C55.0499 42.1707 54.9433 41.8987 54.9433 41.568C54.9433 41.2373 55.0499 40.9653 55.2633 40.752C55.4766 40.5387 55.7486 40.432 56.0793 40.432C56.4099 40.432 56.6819 40.5387 56.8953 40.752C57.1086 40.9653 57.2153 41.2373 57.2153 41.568C57.2153 41.8987 57.1086 42.1707 56.8953 42.384C56.6819 42.5973 56.4099 42.704 56.0793 42.704ZM55.3113 52C55.2579 52 55.2099 51.984 55.1673 51.952C55.1353 51.9093 55.1193 51.8613 55.1193 51.808V44C55.1193 43.9467 55.1353 43.904 55.1673 43.872C55.2099 43.8293 55.2579 43.808 55.3113 43.808H56.7833C56.8366 43.808 56.8793 43.8293 56.9113 43.872C56.9539 43.904 56.9753 43.9467 56.9753 44V51.808C56.9753 51.8613 56.9539 51.9093 56.9113 51.952C56.8793 51.984 56.8366 52 56.7833 52H55.3113ZM63.4374 45.136C63.4374 45.1893 63.416 45.2373 63.3734 45.28C63.3414 45.312 63.2987 45.328 63.2454 45.328H61.6134C61.56 45.328 61.5334 45.3547 61.5334 45.408V49.264C61.5334 49.6693 61.6187 49.9627 61.7894 50.144C61.9707 50.3253 62.2534 50.416 62.6374 50.416H63.1174C63.1707 50.416 63.2134 50.4373 63.2454 50.48C63.288 50.512 63.3094 50.5547 63.3094 50.608V51.808C63.3094 51.9253 63.2454 51.9947 63.1174 52.016L62.2854 52.032C61.4427 52.032 60.8134 51.888 60.3974 51.6C59.9814 51.312 59.768 50.768 59.7574 49.968V45.408C59.7574 45.3547 59.7307 45.328 59.6774 45.328H58.7654C58.712 45.328 58.664 45.312 58.6214 45.28C58.5894 45.2373 58.5734 45.1893 58.5734 45.136V44.016C58.5734 43.9627 58.5894 43.92 58.6214 43.888C58.664 43.8453 58.712 43.824 58.7654 43.824H59.6774C59.7307 43.824 59.7574 43.7973 59.7574 43.744V41.872C59.7574 41.8187 59.7734 41.776 59.8054 41.744C59.848 41.7013 59.896 41.68 59.9494 41.68H61.3414C61.3947 41.68 61.4374 41.7013 61.4694 41.744C61.512 41.776 61.5334 41.8187 61.5334 41.872V43.744C61.5334 43.7973 61.56 43.824 61.6134 43.824H63.2454C63.2987 43.824 63.3414 43.8453 63.3734 43.888C63.416 43.92 63.4374 43.9627 63.4374 44.016V45.136ZM68.4015 52.128C67.5588 52.128 66.8335 51.9147 66.2255 51.488C65.6282 51.0613 65.2068 50.4693 64.9615 49.712C64.7802 49.136 64.6895 48.528 64.6895 47.888C64.6895 47.2053 64.7748 46.5973 64.9455 46.064C65.1908 45.3173 65.6175 44.736 66.2255 44.32C66.8335 43.904 67.5642 43.696 68.4175 43.696C69.2282 43.696 69.9268 43.904 70.5135 44.32C71.1108 44.736 71.5322 45.312 71.7775 46.048C71.9695 46.56 72.0655 47.168 72.0655 47.872C72.0655 48.544 71.9748 49.152 71.7935 49.696C71.5482 50.4533 71.1268 51.0507 70.5295 51.488C69.9322 51.9147 69.2228 52.128 68.4015 52.128ZM68.4015 50.528C68.7962 50.528 69.1322 50.416 69.4095 50.192C69.6975 49.968 69.9055 49.6533 70.0335 49.248C70.1402 48.896 70.1935 48.448 70.1935 47.904C70.1935 47.328 70.1402 46.88 70.0335 46.56C69.9162 46.1547 69.7135 45.8453 69.4255 45.632C69.1375 45.408 68.7855 45.296 68.3695 45.296C67.9748 45.296 67.6335 45.408 67.3455 45.632C67.0575 45.8453 66.8495 46.1547 66.7215 46.56C66.6148 46.9333 66.5615 47.3813 66.5615 47.904C66.5615 48.4267 66.6148 48.8747 66.7215 49.248C66.8388 49.6533 67.0415 49.968 67.3295 50.192C67.6282 50.416 67.9855 50.528 68.4015 50.528ZM77.6281 43.728C77.9695 43.728 78.2681 43.7973 78.5241 43.936C78.6095 43.9787 78.6415 44.0587 78.6201 44.176L78.3481 45.616C78.3375 45.744 78.2628 45.7813 78.1241 45.728C77.9641 45.6747 77.7775 45.648 77.5641 45.648C77.4255 45.648 77.3188 45.6533 77.2441 45.664C76.7961 45.6853 76.4228 45.8453 76.1241 46.144C75.8255 46.432 75.6761 46.8107 75.6761 47.28V51.808C75.6761 51.8613 75.6548 51.9093 75.6121 51.952C75.5801 51.984 75.5375 52 75.4841 52H74.0121C73.9588 52 73.9108 51.984 73.8681 51.952C73.8361 51.9093 73.8201 51.8613 73.8201 51.808V44.016C73.8201 43.9627 73.8361 43.92 73.8681 43.888C73.9108 43.8453 73.9588 43.824 74.0121 43.824H75.4841C75.5375 43.824 75.5801 43.8453 75.6121 43.888C75.6548 43.92 75.6761 43.9627 75.6761 44.016V44.736C75.6761 44.7787 75.6815 44.8053 75.6921 44.816C75.7135 44.816 75.7348 44.8 75.7561 44.768C76.2041 44.0747 76.8281 43.728 77.6281 43.728ZM82.8776 43.696C83.5496 43.696 84.1416 43.8133 84.6536 44.048C85.1656 44.2827 85.5603 44.608 85.8376 45.024C86.115 45.4293 86.2536 45.8933 86.2536 46.416V51.808C86.2536 51.8613 86.2323 51.9093 86.1896 51.952C86.1576 51.984 86.115 52 86.0616 52H84.5896C84.5363 52 84.4883 51.984 84.4456 51.952C84.4136 51.9093 84.3976 51.8613 84.3976 51.808V51.296C84.3976 51.264 84.387 51.248 84.3656 51.248C84.3443 51.2373 84.323 51.2427 84.3016 51.264C83.779 51.84 83.0216 52.128 82.0296 52.128C81.2296 52.128 80.5683 51.9253 80.0456 51.52C79.5336 51.1147 79.2776 50.512 79.2776 49.712C79.2776 48.88 79.5656 48.2347 80.1416 47.776C80.7283 47.3067 81.5496 47.072 82.6056 47.072H84.3176C84.371 47.072 84.3976 47.0453 84.3976 46.992V46.608C84.3976 46.192 84.275 45.872 84.0296 45.648C83.7843 45.4133 83.4163 45.296 82.9256 45.296C82.5203 45.296 82.1896 45.3707 81.9336 45.52C81.6883 45.6587 81.5336 45.856 81.4696 46.112C81.4376 46.24 81.363 46.2933 81.2456 46.272L79.6936 46.08C79.6403 46.0693 79.5923 46.0533 79.5496 46.032C79.5176 46 79.507 45.9627 79.5176 45.92C79.603 45.2693 79.9496 44.736 80.5576 44.32C81.1763 43.904 81.9496 43.696 82.8776 43.696ZM82.4936 50.656C83.0163 50.656 83.4643 50.5173 83.8376 50.24C84.211 49.9627 84.3976 49.6107 84.3976 49.184V48.432C84.3976 48.3787 84.371 48.352 84.3176 48.352H82.9736C82.4083 48.352 81.9603 48.4587 81.6296 48.672C81.3096 48.8853 81.1496 49.1893 81.1496 49.584C81.1496 49.9253 81.2723 50.192 81.5176 50.384C81.7736 50.5653 82.099 50.656 82.4936 50.656ZM96.869 43.696C97.6903 43.696 98.3303 43.9467 98.789 44.448C99.2583 44.9387 99.493 45.6267 99.493 46.512V51.808C99.493 51.8613 99.4717 51.9093 99.429 51.952C99.397 51.984 99.3543 52 99.301 52H97.845C97.7917 52 97.7437 51.984 97.701 51.952C97.669 51.9093 97.653 51.8613 97.653 51.808V46.896C97.653 46.4053 97.5197 46.016 97.253 45.728C96.997 45.44 96.6503 45.296 96.213 45.296C95.7757 45.296 95.4183 45.44 95.141 45.728C94.8637 46.016 94.725 46.4 94.725 46.88V51.808C94.725 51.8613 94.7037 51.9093 94.661 51.952C94.629 51.984 94.5863 52 94.533 52H93.077C93.0237 52 92.9757 51.984 92.933 51.952C92.901 51.9093 92.885 51.8613 92.885 51.808V46.896C92.885 46.4053 92.7517 46.016 92.485 45.728C92.2183 45.44 91.8663 45.296 91.429 45.296C91.0237 45.296 90.6877 45.4133 90.421 45.648C90.165 45.8827 90.0157 46.2027 89.973 46.608V51.808C89.973 51.8613 89.9517 51.9093 89.909 51.952C89.877 51.984 89.8343 52 89.781 52H88.309C88.2557 52 88.2077 51.984 88.165 51.952C88.133 51.9093 88.117 51.8613 88.117 51.808V44.016C88.117 43.9627 88.133 43.92 88.165 43.888C88.2077 43.8453 88.2557 43.824 88.309 43.824H89.781C89.8343 43.824 89.877 43.8453 89.909 43.888C89.9517 43.92 89.973 43.9627 89.973 44.016V44.544C89.973 44.576 89.9837 44.5973 90.005 44.608C90.0263 44.6187 90.0477 44.608 90.069 44.576C90.3037 44.2773 90.5917 44.0587 90.933 43.92C91.285 43.7707 91.6743 43.696 92.101 43.696C92.6237 43.696 93.0823 43.8027 93.477 44.016C93.8717 44.2293 94.1757 44.5387 94.389 44.944C94.421 44.9867 94.4583 44.9867 94.501 44.944C94.7357 44.5173 95.061 44.2027 95.477 44C95.893 43.7973 96.357 43.696 96.869 43.696ZM108.216 46.992C108.259 47.2587 108.28 47.5573 108.28 47.888L108.264 48.384C108.264 48.512 108.2 48.576 108.072 48.576H103.064C103.011 48.576 102.984 48.6027 102.984 48.656C103.016 49.008 103.064 49.248 103.128 49.376C103.384 50.144 104.008 50.5333 105 50.544C105.725 50.544 106.301 50.2453 106.728 49.648C106.771 49.584 106.824 49.552 106.888 49.552C106.931 49.552 106.968 49.568 107 49.6L107.992 50.416C108.088 50.4907 108.104 50.576 108.04 50.672C107.709 51.1413 107.267 51.504 106.712 51.76C106.168 52.016 105.56 52.144 104.888 52.144C104.056 52.144 103.347 51.9573 102.76 51.584C102.184 51.2107 101.763 50.688 101.496 50.016C101.251 49.44 101.128 48.64 101.128 47.616C101.128 46.9973 101.192 46.496 101.32 46.112C101.533 45.3653 101.933 44.7787 102.52 44.352C103.117 43.9147 103.832 43.696 104.664 43.696C106.765 43.696 107.949 44.7947 108.216 46.992ZM104.664 45.296C104.269 45.296 103.939 45.3973 103.672 45.6C103.416 45.792 103.235 46.064 103.128 46.416C103.064 46.5973 103.021 46.832 103 47.12C102.979 47.1733 103 47.2 103.064 47.2H106.312C106.365 47.2 106.392 47.1733 106.392 47.12C106.371 46.8533 106.339 46.6507 106.296 46.512C106.2 46.128 106.008 45.8293 105.72 45.616C105.443 45.4027 105.091 45.296 104.664 45.296ZM113.896 43.696C114.76 43.696 115.448 43.952 115.96 44.464C116.483 44.976 116.744 45.6747 116.744 46.56V51.808C116.744 51.8613 116.723 51.9093 116.68 51.952C116.648 51.984 116.606 52 116.552 52H115.08C115.027 52 114.979 51.984 114.936 51.952C114.904 51.9093 114.888 51.8613 114.888 51.808V46.944C114.888 46.4533 114.75 46.0587 114.472 45.76C114.195 45.4507 113.827 45.296 113.368 45.296C112.91 45.296 112.536 45.4453 112.248 45.744C111.971 46.0427 111.832 46.4373 111.832 46.928V51.808C111.832 51.8613 111.811 51.9093 111.768 51.952C111.736 51.984 111.694 52 111.64 52H110.168C110.115 52 110.067 51.984 110.024 51.952C109.992 51.9093 109.976 51.8613 109.976 51.808V44.016C109.976 43.9627 109.992 43.92 110.024 43.888C110.067 43.8453 110.115 43.824 110.168 43.824H111.64C111.694 43.824 111.736 43.8453 111.768 43.888C111.811 43.92 111.832 43.9627 111.832 44.016V44.528C111.832 44.56 111.843 44.5813 111.864 44.592C111.886 44.6027 111.902 44.592 111.912 44.56C112.35 43.984 113.011 43.696 113.896 43.696ZM123.016 45.136C123.016 45.1893 122.994 45.2373 122.952 45.28C122.92 45.312 122.877 45.328 122.824 45.328H121.192C121.138 45.328 121.112 45.3547 121.112 45.408V49.264C121.112 49.6693 121.197 49.9627 121.368 50.144C121.549 50.3253 121.832 50.416 122.216 50.416H122.696C122.749 50.416 122.792 50.4373 122.824 50.48C122.866 50.512 122.888 50.5547 122.888 50.608V51.808C122.888 51.9253 122.824 51.9947 122.696 52.016L121.864 52.032C121.021 52.032 120.392 51.888 119.976 51.6C119.56 51.312 119.346 50.768 119.336 49.968V45.408C119.336 45.3547 119.309 45.328 119.256 45.328H118.344C118.29 45.328 118.242 45.312 118.2 45.28C118.168 45.2373 118.152 45.1893 118.152 45.136V44.016C118.152 43.9627 118.168 43.92 118.2 43.888C118.242 43.8453 118.29 43.824 118.344 43.824H119.256C119.309 43.824 119.336 43.7973 119.336 43.744V41.872C119.336 41.8187 119.352 41.776 119.384 41.744C119.426 41.7013 119.474 41.68 119.528 41.68H120.92C120.973 41.68 121.016 41.7013 121.048 41.744C121.09 41.776 121.112 41.8187 121.112 41.872V43.744C121.112 43.7973 121.138 43.824 121.192 43.824H122.824C122.877 43.824 122.92 43.8453 122.952 43.888C122.994 43.92 123.016 43.9627 123.016 44.016V45.136ZM127.98 52.128C127.137 52.128 126.412 51.9147 125.804 51.488C125.206 51.0613 124.785 50.4693 124.54 49.712C124.358 49.136 124.268 48.528 124.268 47.888C124.268 47.2053 124.353 46.5973 124.524 46.064C124.769 45.3173 125.196 44.736 125.804 44.32C126.412 43.904 127.142 43.696 127.996 43.696C128.806 43.696 129.505 43.904 130.092 44.32C130.689 44.736 131.11 45.312 131.356 46.048C131.548 46.56 131.644 47.168 131.644 47.872C131.644 48.544 131.553 49.152 131.372 49.696C131.126 50.4533 130.705 51.0507 130.108 51.488C129.51 51.9147 128.801 52.128 127.98 52.128ZM127.98 50.528C128.374 50.528 128.71 50.416 128.988 50.192C129.276 49.968 129.484 49.6533 129.612 49.248C129.718 48.896 129.772 48.448 129.772 47.904C129.772 47.328 129.718 46.88 129.612 46.56C129.494 46.1547 129.292 45.8453 129.004 45.632C128.716 45.408 128.364 45.296 127.948 45.296C127.553 45.296 127.212 45.408 126.924 45.632C126.636 45.8453 126.428 46.1547 126.3 46.56C126.193 46.9333 126.14 47.3813 126.14 47.904C126.14 48.4267 126.193 48.8747 126.3 49.248C126.417 49.6533 126.62 49.968 126.908 50.192C127.206 50.416 127.564 50.528 127.98 50.528ZM136.438 52.096C135.766 52.096 135.174 52 134.662 51.808C134.161 51.6053 133.772 51.3333 133.494 50.992C133.217 50.64 133.078 50.2507 133.078 49.824V49.68C133.078 49.6267 133.094 49.584 133.126 49.552C133.169 49.5093 133.217 49.488 133.27 49.488H134.678C134.732 49.488 134.774 49.5093 134.806 49.552C134.849 49.584 134.87 49.6267 134.87 49.68V49.712C134.87 49.9787 135.014 50.2133 135.302 50.416C135.601 50.608 135.974 50.704 136.422 50.704C136.849 50.704 137.196 50.6187 137.462 50.448C137.729 50.2667 137.862 50.0427 137.862 49.776C137.862 49.5307 137.75 49.3493 137.526 49.232C137.313 49.104 136.961 48.9707 136.47 48.832L135.862 48.64C135.318 48.48 134.86 48.3093 134.486 48.128C134.113 47.9467 133.798 47.7013 133.542 47.392C133.286 47.072 133.158 46.6667 133.158 46.176C133.158 45.4293 133.452 44.8373 134.038 44.4C134.625 43.952 135.398 43.728 136.358 43.728C137.009 43.728 137.58 43.8347 138.07 44.048C138.561 44.2507 138.94 44.5387 139.206 44.912C139.473 45.2747 139.606 45.6907 139.606 46.16C139.606 46.2133 139.585 46.2613 139.542 46.304C139.51 46.336 139.468 46.352 139.414 46.352H138.054C138.001 46.352 137.953 46.336 137.91 46.304C137.878 46.2613 137.862 46.2133 137.862 46.16C137.862 45.8827 137.724 45.6533 137.446 45.472C137.18 45.28 136.812 45.184 136.342 45.184C135.926 45.184 135.585 45.264 135.318 45.424C135.062 45.5733 134.934 45.7867 134.934 46.064C134.934 46.32 135.057 46.5173 135.302 46.656C135.558 46.784 135.98 46.928 136.566 47.088L136.918 47.184C137.484 47.3547 137.958 47.5307 138.342 47.712C138.726 47.8827 139.052 48.128 139.318 48.448C139.585 48.7573 139.718 49.1627 139.718 49.664C139.718 50.4213 139.42 51.0187 138.822 51.456C138.225 51.8827 137.43 52.096 136.438 52.096Z" fill="#23AFAE"/>
</svg>
